<svg width="10" height="9" viewBox="0 0 10 9" fill="none" xmlns="http://www.w3.org/2000/svg">
<path d="M9.5 8H0.5C0.224003 8 0 8.224 0 8.5C0 8.77601 0.224003 9.00002 0.5 9.00002H9.5C9.776 9.00002 10 8.77601 10 8.49998C10 8.224 9.776 8 9.5 8ZM0.5 1H9.5C9.776 1 10 0.776013 10 0.5C10 0.223987 9.776 0 9.5 0H0.5C0.224003 1.63399e-05 0 0.224003 0 0.500016C0 0.776013 0.224003 1 0.5 1ZM9.5 4H0.5C0.224003 4 0 4.224 0 4.50002C0 4.77603 0.224003 5.00002 0.5 5.00002H9.5C9.776 5.00002 10 4.77601 10 4.50002C10 4.22402 9.776 4 9.5 4Z" fill="#E5E5E5"/>
</svg>
