<svg width="25" height="21" viewBox="0 0 25 21" fill="none" xmlns="http://www.w3.org/2000/svg">
<path d="M24.7386 7.08305L18.4885 0.832946C18.1397 0.484308 17.5744 0.484413 17.2258 0.833156C17.0584 1.00057 16.9644 1.22752 16.9644 1.46425V4.14286H10.7142C10.2211 4.14286 9.82136 4.54261 9.82136 5.03575C9.82136 5.52888 10.2211 5.92864 10.7142 5.92864H17.8572C18.3504 5.92864 18.7501 5.52888 18.7501 5.03575V3.61959L22.8448 7.71431L18.7501 11.809V10.3929C18.7501 9.89978 18.3504 9.50003 17.8572 9.50003H8.03563V6.82142C8.03553 6.32828 7.63567 5.92864 7.14259 5.92874C6.90591 5.92879 6.67891 6.02281 6.51149 6.19017L0.261439 12.4403C-0.0871464 12.789 -0.0871464 13.3541 0.261439 13.7028L6.51155 19.9529C6.67896 20.1204 6.90601 20.2145 7.1428 20.2145C7.26014 20.2149 7.37644 20.1918 7.48474 20.1467C7.81831 20.0083 8.03574 19.6828 8.03563 19.3216V16.643H14.2857C14.7789 16.643 15.1786 16.2433 15.1786 15.7501C15.1786 15.257 14.7789 14.8572 14.2857 14.8572H7.1428C6.64966 14.8572 6.24991 15.257 6.24991 15.7501V17.1662L2.1552 13.0715L6.24991 8.97681V10.3929C6.24991 10.8861 6.64966 11.2858 7.1428 11.2858H16.9644V13.9644C16.9645 14.4576 17.3643 14.8572 17.8574 14.8571C18.0941 14.857 18.3211 14.763 18.4885 14.5957L24.7386 8.34556C25.0871 7.99687 25.0871 7.43169 24.7386 7.08305Z" fill="#FAB416"/>
</svg>
