<svg version="1.1" id="el_1NCzJ9Ua4" xmlns="http://www.w3.org/2000/svg" xmlns:xlink="http://www.w3.org/1999/xlink" x="0px" y="0px" viewBox="0 0 124 124" style="enable-background:new 0 0 124.4 124.4;" xml:space="preserve"><style>@-webkit-keyframes kf_el_hS5lty5xX3_an_YDGO6tTO3{0%{-webkit-transform: translate(62.20000076293945px, 62.20000076293945px) scale(1, 1) translate(-62.20000076293945px, -62.20000076293945px);transform: translate(62.20000076293945px, 62.20000076293945px) scale(1, 1) translate(-62.20000076293945px, -62.20000076293945px);}5.56%{-webkit-transform: translate(62.20000076293945px, 62.20000076293945px) scale(0, 1) translate(-62.20000076293945px, -62.20000076293945px);transform: translate(62.20000076293945px, 62.20000076293945px) scale(0, 1) translate(-62.20000076293945px, -62.20000076293945px);}11.11%{-webkit-transform: translate(62.20000076293945px, 62.20000076293945px) scale(1, 1) translate(-62.20000076293945px, -62.20000076293945px);transform: translate(62.20000076293945px, 62.20000076293945px) scale(1, 1) translate(-62.20000076293945px, -62.20000076293945px);}16.67%{-webkit-transform: translate(62.20000076293945px, 62.20000076293945px) scale(0, 1) translate(-62.20000076293945px, -62.20000076293945px);transform: translate(62.20000076293945px, 62.20000076293945px) scale(0, 1) translate(-62.20000076293945px, -62.20000076293945px);}22.22%{-webkit-transform: translate(62.20000076293945px, 62.20000076293945px) scale(1, 1) translate(-62.20000076293945px, -62.20000076293945px);transform: translate(62.20000076293945px, 62.20000076293945px) scale(1, 1) translate(-62.20000076293945px, -62.20000076293945px);}27.78%{-webkit-transform: translate(62.20000076293945px, 62.20000076293945px) scale(0, 1) translate(-62.20000076293945px, -62.20000076293945px);transform: translate(62.20000076293945px, 62.20000076293945px) scale(0, 1) translate(-62.20000076293945px, -62.20000076293945px);}33.33%{-webkit-transform: translate(62.20000076293945px, 62.20000076293945px) scale(1, 1) translate(-62.20000076293945px, -62.20000076293945px);transform: translate(62.20000076293945px, 62.20000076293945px) scale(1, 1) translate(-62.20000076293945px, -62.20000076293945px);}38.89%{-webkit-transform: translate(62.20000076293945px, 62.20000076293945px) scale(0, 1) translate(-62.20000076293945px, -62.20000076293945px);transform: translate(62.20000076293945px, 62.20000076293945px) scale(0, 1) translate(-62.20000076293945px, -62.20000076293945px);}44.44%{-webkit-transform: translate(62.20000076293945px, 62.20000076293945px) scale(1, 1) translate(-62.20000076293945px, -62.20000076293945px);transform: translate(62.20000076293945px, 62.20000076293945px) scale(1, 1) translate(-62.20000076293945px, -62.20000076293945px);}50%{-webkit-transform: translate(62.20000076293945px, 62.20000076293945px) scale(0, 1) translate(-62.20000076293945px, -62.20000076293945px);transform: translate(62.20000076293945px, 62.20000076293945px) scale(0, 1) translate(-62.20000076293945px, -62.20000076293945px);}55.56%{-webkit-transform: translate(62.20000076293945px, 62.20000076293945px) scale(1, 1) translate(-62.20000076293945px, -62.20000076293945px);transform: translate(62.20000076293945px, 62.20000076293945px) scale(1, 1) translate(-62.20000076293945px, -62.20000076293945px);}61.11%{-webkit-transform: translate(62.20000076293945px, 62.20000076293945px) scale(0, 1) translate(-62.20000076293945px, -62.20000076293945px);transform: translate(62.20000076293945px, 62.20000076293945px) scale(0, 1) translate(-62.20000076293945px, -62.20000076293945px);}66.67%{-webkit-transform: translate(62.20000076293945px, 62.20000076293945px) scale(1, 1) translate(-62.20000076293945px, -62.20000076293945px);transform: translate(62.20000076293945px, 62.20000076293945px) scale(1, 1) translate(-62.20000076293945px, -62.20000076293945px);}72.22%{-webkit-transform: translate(62.20000076293945px, 62.20000076293945px) scale(0, 1) translate(-62.20000076293945px, -62.20000076293945px);transform: translate(62.20000076293945px, 62.20000076293945px) scale(0, 1) translate(-62.20000076293945px, -62.20000076293945px);}77.78%{-webkit-transform: translate(62.20000076293945px, 62.20000076293945px) scale(1, 1) translate(-62.20000076293945px, -62.20000076293945px);transform: translate(62.20000076293945px, 62.20000076293945px) scale(1, 1) translate(-62.20000076293945px, -62.20000076293945px);}83.33%{-webkit-transform: translate(62.20000076293945px, 62.20000076293945px) scale(0, 1) translate(-62.20000076293945px, -62.20000076293945px);transform: translate(62.20000076293945px, 62.20000076293945px) scale(0, 1) translate(-62.20000076293945px, -62.20000076293945px);}88.89%{-webkit-transform: translate(62.20000076293945px, 62.20000076293945px) scale(1, 1) translate(-62.20000076293945px, -62.20000076293945px);transform: translate(62.20000076293945px, 62.20000076293945px) scale(1, 1) translate(-62.20000076293945px, -62.20000076293945px);}94.44%{-webkit-transform: translate(62.20000076293945px, 62.20000076293945px) scale(0, 1) translate(-62.20000076293945px, -62.20000076293945px);transform: translate(62.20000076293945px, 62.20000076293945px) scale(0, 1) translate(-62.20000076293945px, -62.20000076293945px);}100%{-webkit-transform: translate(62.20000076293945px, 62.20000076293945px) scale(1, 1) translate(-62.20000076293945px, -62.20000076293945px);transform: translate(62.20000076293945px, 62.20000076293945px) scale(1, 1) translate(-62.20000076293945px, -62.20000076293945px);}}@keyframes kf_el_hS5lty5xX3_an_YDGO6tTO3{0%{-webkit-transform: translate(62.20000076293945px, 62.20000076293945px) scale(1, 1) translate(-62.20000076293945px, -62.20000076293945px);transform: translate(62.20000076293945px, 62.20000076293945px) scale(1, 1) translate(-62.20000076293945px, -62.20000076293945px);}5.56%{-webkit-transform: translate(62.20000076293945px, 62.20000076293945px) scale(0, 1) translate(-62.20000076293945px, -62.20000076293945px);transform: translate(62.20000076293945px, 62.20000076293945px) scale(0, 1) translate(-62.20000076293945px, -62.20000076293945px);}11.11%{-webkit-transform: translate(62.20000076293945px, 62.20000076293945px) scale(1, 1) translate(-62.20000076293945px, -62.20000076293945px);transform: translate(62.20000076293945px, 62.20000076293945px) scale(1, 1) translate(-62.20000076293945px, -62.20000076293945px);}16.67%{-webkit-transform: translate(62.20000076293945px, 62.20000076293945px) scale(0, 1) translate(-62.20000076293945px, -62.20000076293945px);transform: translate(62.20000076293945px, 62.20000076293945px) scale(0, 1) translate(-62.20000076293945px, -62.20000076293945px);}22.22%{-webkit-transform: translate(62.20000076293945px, 62.20000076293945px) scale(1, 1) translate(-62.20000076293945px, -62.20000076293945px);transform: translate(62.20000076293945px, 62.20000076293945px) scale(1, 1) translate(-62.20000076293945px, -62.20000076293945px);}27.78%{-webkit-transform: translate(62.20000076293945px, 62.20000076293945px) scale(0, 1) translate(-62.20000076293945px, -62.20000076293945px);transform: translate(62.20000076293945px, 62.20000076293945px) scale(0, 1) translate(-62.20000076293945px, -62.20000076293945px);}33.33%{-webkit-transform: translate(62.20000076293945px, 62.20000076293945px) scale(1, 1) translate(-62.20000076293945px, -62.20000076293945px);transform: translate(62.20000076293945px, 62.20000076293945px) scale(1, 1) translate(-62.20000076293945px, -62.20000076293945px);}38.89%{-webkit-transform: translate(62.20000076293945px, 62.20000076293945px) scale(0, 1) translate(-62.20000076293945px, -62.20000076293945px);transform: translate(62.20000076293945px, 62.20000076293945px) scale(0, 1) translate(-62.20000076293945px, -62.20000076293945px);}44.44%{-webkit-transform: translate(62.20000076293945px, 62.20000076293945px) scale(1, 1) translate(-62.20000076293945px, -62.20000076293945px);transform: translate(62.20000076293945px, 62.20000076293945px) scale(1, 1) translate(-62.20000076293945px, -62.20000076293945px);}50%{-webkit-transform: translate(62.20000076293945px, 62.20000076293945px) scale(0, 1) translate(-62.20000076293945px, -62.20000076293945px);transform: translate(62.20000076293945px, 62.20000076293945px) scale(0, 1) translate(-62.20000076293945px, -62.20000076293945px);}55.56%{-webkit-transform: translate(62.20000076293945px, 62.20000076293945px) scale(1, 1) translate(-62.20000076293945px, -62.20000076293945px);transform: translate(62.20000076293945px, 62.20000076293945px) scale(1, 1) translate(-62.20000076293945px, -62.20000076293945px);}61.11%{-webkit-transform: translate(62.20000076293945px, 62.20000076293945px) scale(0, 1) translate(-62.20000076293945px, -62.20000076293945px);transform: translate(62.20000076293945px, 62.20000076293945px) scale(0, 1) translate(-62.20000076293945px, -62.20000076293945px);}66.67%{-webkit-transform: translate(62.20000076293945px, 62.20000076293945px) scale(1, 1) translate(-62.20000076293945px, -62.20000076293945px);transform: translate(62.20000076293945px, 62.20000076293945px) scale(1, 1) translate(-62.20000076293945px, -62.20000076293945px);}72.22%{-webkit-transform: translate(62.20000076293945px, 62.20000076293945px) scale(0, 1) translate(-62.20000076293945px, -62.20000076293945px);transform: translate(62.20000076293945px, 62.20000076293945px) scale(0, 1) translate(-62.20000076293945px, -62.20000076293945px);}77.78%{-webkit-transform: translate(62.20000076293945px, 62.20000076293945px) scale(1, 1) translate(-62.20000076293945px, -62.20000076293945px);transform: translate(62.20000076293945px, 62.20000076293945px) scale(1, 1) translate(-62.20000076293945px, -62.20000076293945px);}83.33%{-webkit-transform: translate(62.20000076293945px, 62.20000076293945px) scale(0, 1) translate(-62.20000076293945px, -62.20000076293945px);transform: translate(62.20000076293945px, 62.20000076293945px) scale(0, 1) translate(-62.20000076293945px, -62.20000076293945px);}88.89%{-webkit-transform: translate(62.20000076293945px, 62.20000076293945px) scale(1, 1) translate(-62.20000076293945px, -62.20000076293945px);transform: translate(62.20000076293945px, 62.20000076293945px) scale(1, 1) translate(-62.20000076293945px, -62.20000076293945px);}94.44%{-webkit-transform: translate(62.20000076293945px, 62.20000076293945px) scale(0, 1) translate(-62.20000076293945px, -62.20000076293945px);transform: translate(62.20000076293945px, 62.20000076293945px) scale(0, 1) translate(-62.20000076293945px, -62.20000076293945px);}100%{-webkit-transform: translate(62.20000076293945px, 62.20000076293945px) scale(1, 1) translate(-62.20000076293945px, -62.20000076293945px);transform: translate(62.20000076293945px, 62.20000076293945px) scale(1, 1) translate(-62.20000076293945px, -62.20000076293945px);}}@-webkit-keyframes kf_el_jfU4iNnp_J_an_Oz4BRq7zJ{0%{-webkit-transform: translate(62.20000076293945px, 62.20000076293945px) scale(0, 1) translate(-62.20000076293945px, -62.20000076293945px);transform: translate(62.20000076293945px, 62.20000076293945px) scale(0, 1) translate(-62.20000076293945px, -62.20000076293945px);}5.56%{-webkit-transform: translate(62.20000076293945px, 62.20000076293945px) scale(1, 1) translate(-62.20000076293945px, -62.20000076293945px);transform: translate(62.20000076293945px, 62.20000076293945px) scale(1, 1) translate(-62.20000076293945px, -62.20000076293945px);}11.11%{-webkit-transform: translate(62.20000076293945px, 62.20000076293945px) scale(0, 1) translate(-62.20000076293945px, -62.20000076293945px);transform: translate(62.20000076293945px, 62.20000076293945px) scale(0, 1) translate(-62.20000076293945px, -62.20000076293945px);}16.67%{-webkit-transform: translate(62.20000076293945px, 62.20000076293945px) scale(1, 1) translate(-62.20000076293945px, -62.20000076293945px);transform: translate(62.20000076293945px, 62.20000076293945px) scale(1, 1) translate(-62.20000076293945px, -62.20000076293945px);}22.22%{-webkit-transform: translate(62.20000076293945px, 62.20000076293945px) scale(0, 1) translate(-62.20000076293945px, -62.20000076293945px);transform: translate(62.20000076293945px, 62.20000076293945px) scale(0, 1) translate(-62.20000076293945px, -62.20000076293945px);}27.78%{-webkit-transform: translate(62.20000076293945px, 62.20000076293945px) scale(1, 1) translate(-62.20000076293945px, -62.20000076293945px);transform: translate(62.20000076293945px, 62.20000076293945px) scale(1, 1) translate(-62.20000076293945px, -62.20000076293945px);}33.33%{-webkit-transform: translate(62.20000076293945px, 62.20000076293945px) scale(0, 1) translate(-62.20000076293945px, -62.20000076293945px);transform: translate(62.20000076293945px, 62.20000076293945px) scale(0, 1) translate(-62.20000076293945px, -62.20000076293945px);}38.89%{-webkit-transform: translate(62.20000076293945px, 62.20000076293945px) scale(1, 1) translate(-62.20000076293945px, -62.20000076293945px);transform: translate(62.20000076293945px, 62.20000076293945px) scale(1, 1) translate(-62.20000076293945px, -62.20000076293945px);}44.44%{-webkit-transform: translate(62.20000076293945px, 62.20000076293945px) scale(0, 1) translate(-62.20000076293945px, -62.20000076293945px);transform: translate(62.20000076293945px, 62.20000076293945px) scale(0, 1) translate(-62.20000076293945px, -62.20000076293945px);}50%{-webkit-transform: translate(62.20000076293945px, 62.20000076293945px) scale(1, 1) translate(-62.20000076293945px, -62.20000076293945px);transform: translate(62.20000076293945px, 62.20000076293945px) scale(1, 1) translate(-62.20000076293945px, -62.20000076293945px);}55.56%{-webkit-transform: translate(62.20000076293945px, 62.20000076293945px) scale(0, 1) translate(-62.20000076293945px, -62.20000076293945px);transform: translate(62.20000076293945px, 62.20000076293945px) scale(0, 1) translate(-62.20000076293945px, -62.20000076293945px);}61.11%{-webkit-transform: translate(62.20000076293945px, 62.20000076293945px) scale(1, 1) translate(-62.20000076293945px, -62.20000076293945px);transform: translate(62.20000076293945px, 62.20000076293945px) scale(1, 1) translate(-62.20000076293945px, -62.20000076293945px);}66.67%{-webkit-transform: translate(62.20000076293945px, 62.20000076293945px) scale(0, 1) translate(-62.20000076293945px, -62.20000076293945px);transform: translate(62.20000076293945px, 62.20000076293945px) scale(0, 1) translate(-62.20000076293945px, -62.20000076293945px);}72.22%{-webkit-transform: translate(62.20000076293945px, 62.20000076293945px) scale(1, 1) translate(-62.20000076293945px, -62.20000076293945px);transform: translate(62.20000076293945px, 62.20000076293945px) scale(1, 1) translate(-62.20000076293945px, -62.20000076293945px);}77.78%{-webkit-transform: translate(62.20000076293945px, 62.20000076293945px) scale(0, 1) translate(-62.20000076293945px, -62.20000076293945px);transform: translate(62.20000076293945px, 62.20000076293945px) scale(0, 1) translate(-62.20000076293945px, -62.20000076293945px);}83.33%{-webkit-transform: translate(62.20000076293945px, 62.20000076293945px) scale(1, 1) translate(-62.20000076293945px, -62.20000076293945px);transform: translate(62.20000076293945px, 62.20000076293945px) scale(1, 1) translate(-62.20000076293945px, -62.20000076293945px);}88.89%{-webkit-transform: translate(62.20000076293945px, 62.20000076293945px) scale(0, 1) translate(-62.20000076293945px, -62.20000076293945px);transform: translate(62.20000076293945px, 62.20000076293945px) scale(0, 1) translate(-62.20000076293945px, -62.20000076293945px);}94.44%{-webkit-transform: translate(62.20000076293945px, 62.20000076293945px) scale(1, 1) translate(-62.20000076293945px, -62.20000076293945px);transform: translate(62.20000076293945px, 62.20000076293945px) scale(1, 1) translate(-62.20000076293945px, -62.20000076293945px);}100%{-webkit-transform: translate(62.20000076293945px, 62.20000076293945px) scale(0, 1) translate(-62.20000076293945px, -62.20000076293945px);transform: translate(62.20000076293945px, 62.20000076293945px) scale(0, 1) translate(-62.20000076293945px, -62.20000076293945px);}}@keyframes kf_el_jfU4iNnp_J_an_Oz4BRq7zJ{0%{-webkit-transform: translate(62.20000076293945px, 62.20000076293945px) scale(0, 1) translate(-62.20000076293945px, -62.20000076293945px);transform: translate(62.20000076293945px, 62.20000076293945px) scale(0, 1) translate(-62.20000076293945px, -62.20000076293945px);}5.56%{-webkit-transform: translate(62.20000076293945px, 62.20000076293945px) scale(1, 1) translate(-62.20000076293945px, -62.20000076293945px);transform: translate(62.20000076293945px, 62.20000076293945px) scale(1, 1) translate(-62.20000076293945px, -62.20000076293945px);}11.11%{-webkit-transform: translate(62.20000076293945px, 62.20000076293945px) scale(0, 1) translate(-62.20000076293945px, -62.20000076293945px);transform: translate(62.20000076293945px, 62.20000076293945px) scale(0, 1) translate(-62.20000076293945px, -62.20000076293945px);}16.67%{-webkit-transform: translate(62.20000076293945px, 62.20000076293945px) scale(1, 1) translate(-62.20000076293945px, -62.20000076293945px);transform: translate(62.20000076293945px, 62.20000076293945px) scale(1, 1) translate(-62.20000076293945px, -62.20000076293945px);}22.22%{-webkit-transform: translate(62.20000076293945px, 62.20000076293945px) scale(0, 1) translate(-62.20000076293945px, -62.20000076293945px);transform: translate(62.20000076293945px, 62.20000076293945px) scale(0, 1) translate(-62.20000076293945px, -62.20000076293945px);}27.78%{-webkit-transform: translate(62.20000076293945px, 62.20000076293945px) scale(1, 1) translate(-62.20000076293945px, -62.20000076293945px);transform: translate(62.20000076293945px, 62.20000076293945px) scale(1, 1) translate(-62.20000076293945px, -62.20000076293945px);}33.33%{-webkit-transform: translate(62.20000076293945px, 62.20000076293945px) scale(0, 1) translate(-62.20000076293945px, -62.20000076293945px);transform: translate(62.20000076293945px, 62.20000076293945px) scale(0, 1) translate(-62.20000076293945px, -62.20000076293945px);}38.89%{-webkit-transform: translate(62.20000076293945px, 62.20000076293945px) scale(1, 1) translate(-62.20000076293945px, -62.20000076293945px);transform: translate(62.20000076293945px, 62.20000076293945px) scale(1, 1) translate(-62.20000076293945px, -62.20000076293945px);}44.44%{-webkit-transform: translate(62.20000076293945px, 62.20000076293945px) scale(0, 1) translate(-62.20000076293945px, -62.20000076293945px);transform: translate(62.20000076293945px, 62.20000076293945px) scale(0, 1) translate(-62.20000076293945px, -62.20000076293945px);}50%{-webkit-transform: translate(62.20000076293945px, 62.20000076293945px) scale(1, 1) translate(-62.20000076293945px, -62.20000076293945px);transform: translate(62.20000076293945px, 62.20000076293945px) scale(1, 1) translate(-62.20000076293945px, -62.20000076293945px);}55.56%{-webkit-transform: translate(62.20000076293945px, 62.20000076293945px) scale(0, 1) translate(-62.20000076293945px, -62.20000076293945px);transform: translate(62.20000076293945px, 62.20000076293945px) scale(0, 1) translate(-62.20000076293945px, -62.20000076293945px);}61.11%{-webkit-transform: translate(62.20000076293945px, 62.20000076293945px) scale(1, 1) translate(-62.20000076293945px, -62.20000076293945px);transform: translate(62.20000076293945px, 62.20000076293945px) scale(1, 1) translate(-62.20000076293945px, -62.20000076293945px);}66.67%{-webkit-transform: translate(62.20000076293945px, 62.20000076293945px) scale(0, 1) translate(-62.20000076293945px, -62.20000076293945px);transform: translate(62.20000076293945px, 62.20000076293945px) scale(0, 1) translate(-62.20000076293945px, -62.20000076293945px);}72.22%{-webkit-transform: translate(62.20000076293945px, 62.20000076293945px) scale(1, 1) translate(-62.20000076293945px, -62.20000076293945px);transform: translate(62.20000076293945px, 62.20000076293945px) scale(1, 1) translate(-62.20000076293945px, -62.20000076293945px);}77.78%{-webkit-transform: translate(62.20000076293945px, 62.20000076293945px) scale(0, 1) translate(-62.20000076293945px, -62.20000076293945px);transform: translate(62.20000076293945px, 62.20000076293945px) scale(0, 1) translate(-62.20000076293945px, -62.20000076293945px);}83.33%{-webkit-transform: translate(62.20000076293945px, 62.20000076293945px) scale(1, 1) translate(-62.20000076293945px, -62.20000076293945px);transform: translate(62.20000076293945px, 62.20000076293945px) scale(1, 1) translate(-62.20000076293945px, -62.20000076293945px);}88.89%{-webkit-transform: translate(62.20000076293945px, 62.20000076293945px) scale(0, 1) translate(-62.20000076293945px, -62.20000076293945px);transform: translate(62.20000076293945px, 62.20000076293945px) scale(0, 1) translate(-62.20000076293945px, -62.20000076293945px);}94.44%{-webkit-transform: translate(62.20000076293945px, 62.20000076293945px) scale(1, 1) translate(-62.20000076293945px, -62.20000076293945px);transform: translate(62.20000076293945px, 62.20000076293945px) scale(1, 1) translate(-62.20000076293945px, -62.20000076293945px);}100%{-webkit-transform: translate(62.20000076293945px, 62.20000076293945px) scale(0, 1) translate(-62.20000076293945px, -62.20000076293945px);transform: translate(62.20000076293945px, 62.20000076293945px) scale(0, 1) translate(-62.20000076293945px, -62.20000076293945px);}}#el_1NCzJ9Ua4 *{-webkit-animation-duration: 3s;animation-duration: 3s;-webkit-animation-iteration-count: infinite;animation-iteration-count: infinite;-webkit-animation-timing-function: cubic-bezier(0, 0, 1, 1);animation-timing-function: cubic-bezier(0, 0, 1, 1);}#el_KZwmctsXnO{fill: url(#SVGID_1_);}#el_hS5lty5xX3{fill: url(#SVGID_2_);}#el_jfU4iNnp_J_an_Oz4BRq7zJ{-webkit-animation-fill-mode: backwards;animation-fill-mode: backwards;-webkit-transform: translate(62.20000076293945px, 62.20000076293945px) scale(0, 1) translate(-62.20000076293945px, -62.20000076293945px);transform: translate(62.20000076293945px, 62.20000076293945px) scale(0, 1) translate(-62.20000076293945px, -62.20000076293945px);-webkit-animation-name: kf_el_jfU4iNnp_J_an_Oz4BRq7zJ;animation-name: kf_el_jfU4iNnp_J_an_Oz4BRq7zJ;-webkit-animation-timing-function: cubic-bezier(0, 0, 1, 1);animation-timing-function: cubic-bezier(0, 0, 1, 1);}#el_hS5lty5xX3_an_YDGO6tTO3{-webkit-animation-fill-mode: backwards;animation-fill-mode: backwards;-webkit-transform: translate(62.20000076293945px, 62.20000076293945px) scale(1, 1) translate(-62.20000076293945px, -62.20000076293945px);transform: translate(62.20000076293945px, 62.20000076293945px) scale(1, 1) translate(-62.20000076293945px, -62.20000076293945px);-webkit-animation-name: kf_el_hS5lty5xX3_an_YDGO6tTO3;animation-name: kf_el_hS5lty5xX3_an_YDGO6tTO3;-webkit-animation-timing-function: cubic-bezier(0, 0, 1, 1);animation-timing-function: cubic-bezier(0, 0, 1, 1);}</style>

<g id="el_jfU4iNnp_J_an_Oz4BRq7zJ" data-animator-group="true" data-animator-type="2"><g id="el_jfU4iNnp_J">
	<g id="el_wd-eU02WnL">
		<linearGradient id="SVGID_1_" gradientUnits="userSpaceOnUse" x1="-4.932253e-07" y1="62.22" x2="124.44" y2="62.22">
			<stop offset="0" style="stop-color:#D11C79"/>
			<stop offset="0.41" style="stop-color:#DF4459"/>
			<stop offset="1" style="stop-color:#F68525"/>
		</linearGradient>
		<path d="M62.2,0C27.9,0,0,27.9,0,62.2s27.9,62.2,62.2,62.2s62.2-27.9,62.2-62.2l0,0C124.4,27.9,96.6,0,62.2,0z&#10;&#9;&#9;&#9; M62.2,109.9c-26.4,0-47.7-21.4-47.7-47.7s21.4-47.7,47.7-47.7s47.7,21.4,47.7,47.7C109.9,88.6,88.6,109.9,62.2,109.9z M97.5,28&#10;&#9;&#9;&#9;l8.1-8.1c5,5.2,9.1,11.2,12.1,17.8l-10.6,4.5C104.8,36.9,101.5,32.1,97.5,28z M96.5,26.9c-4.1-4-8.9-7.3-14.2-9.6l4.5-10.6&#10;&#9;&#9;&#9;c6.6,2.9,12.6,7,17.8,12.1L96.5,26.9z M80.9,16.7C75.2,14.3,69.1,13.1,63,13V1.5c7.7,0.1,15.3,1.6,22.4,4.6L80.9,16.7z M61.5,13&#10;&#9;&#9;&#9;c-6.2,0.1-12.2,1.3-17.9,3.7L39,6.1c7.1-3,14.7-4.5,22.5-4.6L61.5,13z M42.2,17.3c-5.3,2.4-10,5.6-14.2,9.6l-8.1-8.1&#10;&#9;&#9;&#9;c5.2-5,11.2-9.1,17.8-12.1L42.2,17.3z M26.9,28c-4,4.1-7.3,8.9-9.6,14.2L6.7,37.6c2.9-6.6,7-12.6,12.1-17.8L26.9,28z M16.7,43.5&#10;&#9;&#9;&#9;c-2.3,5.7-3.6,11.8-3.7,17.9H1.5C1.6,53.8,3.2,46.1,6.1,39L16.7,43.5z M13,63c0.1,6.2,1.3,12.2,3.7,17.9L6.1,85.4&#10;&#9;&#9;&#9;C3.2,78.3,1.6,70.7,1.5,63H13z M17.3,82.3c2.4,5.3,5.6,10.1,9.6,14.2l-8.1,8.1c-5-5.2-9.1-11.2-12.1-17.8L17.3,82.3z M28,97.5&#10;&#9;&#9;&#9;c4.1,4,8.9,7.3,14.2,9.6l-4.5,10.6c-6.6-2.9-12.6-7-17.8-12.1L28,97.5z M43.6,107.8c5.7,2.3,11.8,3.6,17.9,3.7v11.5&#10;&#9;&#9;&#9;c-7.7-0.1-15.4-1.6-22.5-4.6L43.6,107.8z M63,111.4c6.2-0.1,12.2-1.3,17.9-3.7l4.5,10.6c-7.1,3-14.7,4.5-22.4,4.6V111.4z&#10;&#9;&#9;&#9; M82.3,107.2c5.3-2.4,10.1-5.6,14.2-9.6l8.1,8.1c-5.2,5-11.2,9.1-17.8,12.1L82.3,107.2z M97.5,96.5c4-4.1,7.3-8.9,9.6-14.2&#10;&#9;&#9;&#9;l10.6,4.5c-2.9,6.6-7,12.6-12.1,17.8L97.5,96.5z M107.8,80.9c2.3-5.7,3.6-11.7,3.7-17.9h11.5c-0.1,7.7-1.6,15.3-4.6,22.4&#10;&#9;&#9;&#9;L107.8,80.9z M111.4,61.5c-0.1-6.2-1.3-12.2-3.7-17.9l10.6-4.6c3,7.1,4.5,14.7,4.6,22.5L111.4,61.5z M69.3,99.3H46.6&#10;&#9;&#9;&#9;c-1.2,0-2.2-1-2.2-2.2c0,0,0-0.1,0-0.1c0.2-6,1.9-20.8,14.4-27.3s16.6-12.7,18.1-15.7c-4.1,1.3-13.5,3.6-23.4,0.8&#10;&#9;&#9;&#9;c-2.9-1-6-1.5-9.1-1.6v0.6c0,0.9-0.7,1.6-1.6,1.6l0,0h-8.7c-0.9,0-1.6-0.7-1.6-1.6V34.6c0-0.9,0.7-1.6,1.6-1.6c0,0,0,0,0,0h8.6&#10;&#9;&#9;&#9;c0.9,0,1.6,0.7,1.6,1.6l0,0v0.5H45c1.5-0.1,3.1-0.3,4.6-0.7c10.7-2.3,21.8-2.1,32.4,0.6v-0.5c0-0.9,0.7-1.6,1.6-1.6c0,0,0,0,0,0&#10;&#9;&#9;&#9;h8.7c0.9,0,1.6,0.7,1.6,1.6v17.7c0,1.7-0.2,3.4-0.8,5c-1.3,4.1-4.3,10.3-11.4,16C72,81.2,71.4,93.5,71.5,97&#10;&#9;&#9;&#9;C71.5,98.3,70.5,99.3,69.3,99.3C69.3,99.3,69.3,99.3,69.3,99.3z M79.9,50.8l-0.3,1.8c-0.1,0.4-2,9.6-19.8,18.9&#10;&#9;&#9;&#9;c-11.5,6-13.1,19.8-13.3,25.5c0,0.1,0,0.1,0.1,0.2c0,0,0.1,0.1,0.2,0.1h22.6c0.1,0,0.2-0.1,0.2-0.2c-0.1-3.8,0.6-16.9,11-25.3&#10;&#9;&#9;&#9;c7.1-5.7,9.8-11.9,10.8-15.1c0.4-1.4,0.7-2.9,0.7-4.4V35h-7.8v2.7l-1.3-0.3c-10.7-2.9-22-3.2-32.8-0.9c-1.6,0.4-3.3,0.6-4.9,0.7&#10;&#9;&#9;&#9;c-0.6,0-1.2,0-1.7-0.1L42.4,37v-2h-7.8v18.4h7.8v-2l0.9-0.1c2.6-0.3,6.2,0.3,10.8,1.6c12.1,3.5,24-1.4,24.1-1.4L79.9,50.8z&#10;&#9;&#9;&#9; M54.1,38.4c-0.2,0-0.4-0.2-0.5-0.4c-0.1-0.3,0.1-0.5,0.4-0.6c0,0,0,0,0,0c0.3-0.1,7.9-1.6,13.8-0.8c0.3,0,0.5,0.3,0.4,0.6&#10;&#9;&#9;&#9;c0,0.3-0.3,0.5-0.6,0.4c0,0,0,0,0,0c-5.7-0.7-13.4,0.8-13.5,0.8L54.1,38.4z M67.8,92.9L67.8,92.9c-0.3,0-0.5-0.3-0.5-0.5&#10;&#9;&#9;&#9;c0,0,0,0,0,0c0.4-5.2,2.3-15,10.7-21.8c0.2-0.2,0.5-0.1,0.7,0.1c0,0,0,0,0,0c0.2,0.2,0.1,0.5-0.1,0.7c0,0,0,0,0,0&#10;&#9;&#9;&#9;c-8.1,6.6-9.9,16-10.3,21.1C68.3,92.7,68.1,92.9,67.8,92.9C67.8,92.9,67.8,92.9,67.8,92.9z" id="el_KZwmctsXnO"/>
	</g>
</g></g>
<linearGradient id="SVGID_2_" gradientUnits="userSpaceOnUse" x1="-2.466131e-07" y1="62.22" x2="124.44" y2="62.22">
	<stop offset="0" style="stop-color:#D11C79"/>
	<stop offset="0.41" style="stop-color:#DF4459"/>
	<stop offset="1" style="stop-color:#F68525"/>
</linearGradient>
<g id="el_hS5lty5xX3_an_YDGO6tTO3" data-animator-group="true" data-animator-type="2"><path d="M62.2,0C27.9,0,0,27.9,0,62.2s27.9,62.2,62.2,62.2s62.2-27.9,62.2-62.2l0,0C124.4,27.9,96.6,0,62.2,0z&#10;&#9; M62.2,109.9c-26.4,0-47.7-21.4-47.7-47.7s21.4-47.7,47.7-47.7s47.7,21.4,47.7,47.7C109.9,88.6,88.6,109.9,62.2,109.9z M97.5,28&#10;&#9;l8.1-8.1c5,5.2,9.1,11.2,12.1,17.8l-10.6,4.5C104.8,36.9,101.5,32.1,97.5,28z M96.5,26.9c-4.1-4-8.9-7.3-14.2-9.6l4.5-10.6&#10;&#9;c6.6,2.9,12.6,7,17.8,12.1L96.5,26.9z M80.9,16.7C75.2,14.3,69.1,13.1,63,13V1.5c7.7,0.1,15.3,1.6,22.4,4.6L80.9,16.7z M61.5,13&#10;&#9;c-6.2,0.1-12.2,1.3-17.9,3.7L39,6.1c7.1-3,14.7-4.5,22.5-4.6L61.5,13z M42.2,17.3c-5.3,2.4-10,5.6-14.2,9.6l-8.1-8.1&#10;&#9;c5.2-5,11.2-9.1,17.8-12.1L42.2,17.3z M26.9,28c-4,4.1-7.3,8.9-9.6,14.2L6.7,37.7c2.9-6.6,7-12.6,12.1-17.8L26.9,28z M16.7,43.5&#10;&#9;c-2.3,5.7-3.6,11.8-3.7,17.9H1.5C1.6,53.8,3.2,46.1,6.1,39L16.7,43.5z M13,63c0.1,6.2,1.3,12.2,3.7,17.9L6.1,85.4&#10;&#9;C3.2,78.3,1.6,70.7,1.5,63H13z M17.3,82.3c2.4,5.3,5.6,10.1,9.6,14.2l-8.1,8.1c-5-5.2-9.1-11.2-12.1-17.8L17.3,82.3z M28,97.5&#10;&#9;c4.1,4,8.9,7.3,14.2,9.6l-4.5,10.6c-6.6-2.9-12.6-7-17.8-12.1L28,97.5z M43.6,107.8c5.7,2.3,11.8,3.6,17.9,3.7v11.5&#10;&#9;c-7.7-0.1-15.4-1.6-22.5-4.6L43.6,107.8z M63,111.4c6.2-0.1,12.2-1.3,17.9-3.7l4.5,10.6c-7.1,3-14.7,4.5-22.4,4.6V111.4z&#10;&#9; M82.3,107.2c5.3-2.4,10.1-5.6,14.2-9.6l8.1,8.1c-5.2,5-11.2,9.1-17.8,12.1L82.3,107.2z M97.5,96.5c4-4.1,7.3-8.9,9.6-14.2l10.6,4.5&#10;&#9;c-2.9,6.6-7,12.6-12.1,17.8L97.5,96.5z M107.8,80.9c2.3-5.7,3.6-11.7,3.7-17.9h11.5c-0.1,7.7-1.6,15.3-4.6,22.4L107.8,80.9z&#10;&#9; M111.4,61.5c-0.1-6.2-1.3-12.2-3.7-17.9l10.6-4.6c3,7.1,4.5,14.7,4.6,22.5L111.4,61.5z M64.4,30.3c-0.7-1.2-2.3-1.6-3.5-0.8&#10;&#9;c-0.3,0.2-0.6,0.5-0.8,0.8L41.6,60.6c-0.7,1.2-0.4,2.8,0.8,3.5c0,0,0,0,0.1,0l18.5,10.8c0.4,0.2,0.8,0.4,1.3,0.3&#10;&#9;c0.5,0,0.9-0.1,1.3-0.3L82,64.1c1.2-0.7,1.6-2.3,0.9-3.5c0,0,0,0,0,0L64.4,30.3z M81.7,62.1c-0.1,0.3-0.2,0.5-0.5,0.7L62.8,73.6&#10;&#9;c-0.3,0.2-0.7,0.2-1.1,0L43.2,62.8c-0.5-0.3-0.7-0.9-0.4-1.5l18.5-30.3c0.3-0.5,1-0.6,1.5-0.3c0.1,0.1,0.2,0.2,0.3,0.3l18.5,30.3&#10;&#9;C81.7,61.6,81.8,61.9,81.7,62.1z M76.8,69.8l-14,8.2c-0.3,0.2-0.7,0.2-1.1,0l-14-8.2c-1.2-0.7-2.8-0.3-3.5,0.9&#10;&#9;c-0.5,0.9-0.5,2,0.2,2.9l15.8,20.8c0.5,0.6,1.2,1,2,1c0.8,0,1.5-0.4,2-1l15.9-20.8c0.9-1.1,0.7-2.7-0.5-3.6&#10;&#9;C78.8,69.4,77.7,69.3,76.8,69.8z M78.9,72.7L63.1,93.4c-0.4,0.5-1.1,0.5-1.5,0.2c-0.1,0-0.1-0.1-0.2-0.2L45.6,72.7l0,0&#10;&#9;c-0.4-0.5-0.3-1.1,0.2-1.5c0.3-0.3,0.8-0.3,1.2-0.1l14,8.2c0.8,0.5,1.8,0.5,2.6,0l14-8.2c0.5-0.3,1.1-0.1,1.4,0.4&#10;&#9;C79.2,71.9,79.1,72.3,78.9,72.7L78.9,72.7z M62.2,33.7c-0.3,0-0.5,0.2-0.5,0.5v36c0,0.3,0.2,0.5,0.5,0.5s0.5-0.2,0.5-0.5v-36&#10;&#9;C62.7,33.9,62.5,33.7,62.2,33.7z M62.2,81.1c-0.3,0-0.5,0.2-0.5,0.5v10c0,0.3,0.2,0.5,0.5,0.5c0.3,0,0.5-0.2,0.5-0.5v-10&#10;&#9;C62.7,81.3,62.5,81.1,62.2,81.1z" id="el_hS5lty5xX3"/></g>
</svg>