<svg width="17" height="6" viewBox="0 0 17 6" fill="none" xmlns="http://www.w3.org/2000/svg">
<path d="M0.622426 6L4.68764 2.22755C5.00414 1.9401 5.43026 1.77902 5.87414 1.77902C6.31803 1.77902 6.74414 1.9401 7.06064 2.22755L9.31693 4.32934C9.56207 4.54515 9.84482 4.72126 10.1533 4.8503C10.4615 4.96889 10.792 5.02994 11.1259 5.02994C11.4597 5.02994 11.7902 4.96889 12.0984 4.8503C12.4069 4.72126 12.6896 4.54515 12.9348 4.32934L17 0.57485L16.3776 0L12.3124 3.75449C12.1582 3.90116 11.9738 4.01777 11.77 4.0974C11.5662 4.17703 11.3472 4.21806 11.1259 4.21806C10.9046 4.21806 10.6855 4.17703 10.4817 4.0974C10.2779 4.01777 10.0935 3.90116 9.93936 3.75449L7.78032 1.67066C7.51167 1.43899 7.1937 1.26156 6.84668 1.1497C6.52446 1.03259 6.18151 0.971682 5.83524 0.97006C5.50207 0.976033 5.17273 1.03687 4.8627 1.1497C4.5503 1.27219 4.26634 1.44906 4.02632 1.67066L0 5.38922L0.622426 5.96407V6Z" fill="#6E7793"/>
</svg>
