<svg width="17" height="20" viewBox="0 0 17 20" fill="none" xmlns="http://www.w3.org/2000/svg">
<path d="M8.05948 0C5.92197 0 3.87201 0.849121 2.36057 2.36057C0.849121 3.87201 0 5.92197 0 8.05948L0 19.2532H6.04461V8.05948C6.04461 7.79488 6.09672 7.53288 6.19798 7.28842C6.29924 7.04397 6.44765 6.82185 6.63475 6.63475C6.82185 6.44765 7.04396 6.29924 7.28842 6.19798C7.53288 6.09672 7.79488 6.04461 8.05948 6.04461C8.32407 6.04461 8.58608 6.09672 8.83053 6.19798C9.07499 6.29924 9.29711 6.44765 9.48421 6.63475C9.6713 6.82185 9.81972 7.04397 9.92097 7.28842C10.0222 7.53288 10.0743 7.79488 10.0743 8.05948V19.2532H16.119V8.05948C16.119 5.92197 15.2698 3.87201 13.7584 2.36057C12.2469 0.849121 10.197 0 8.05948 0V0ZM1.00743 18.1338V15.1115H5.03717V18.1338H1.00743ZM9.22362 5.26105C8.85129 5.1202 8.45749 5.04447 8.05948 5.03717C7.66146 5.04447 7.26766 5.1202 6.89533 5.26105C6.53154 5.4161 6.20378 5.64477 5.93267 5.93267C5.64477 6.20378 5.4161 6.53154 5.26105 6.89533C5.1202 7.26767 5.04447 7.66146 5.03717 8.05948V14.1041H1.00743V8.05948C1.00743 6.18916 1.75042 4.39544 3.07293 3.07293C4.39544 1.75042 6.18916 1.00743 8.05948 1.00743C9.92979 1.00743 11.7235 1.75042 13.046 3.07293C14.3685 4.39544 15.1115 6.18916 15.1115 8.05948V14.1041H11.1937V8.05948C11.1973 7.6604 11.1212 7.26463 10.9698 6.89533C10.8144 6.53731 10.5943 6.21098 10.3206 5.93267C10.0041 5.63689 9.63096 5.4084 9.22362 5.26105ZM11.1937 18.1338V15.1115H15.2235V18.1338H11.1937Z" fill="#758696"/>
</svg>
