<svg width="23" height="23" viewBox="0 0 23 23" fill="none" xmlns="http://www.w3.org/2000/svg">
<path d="M22.9166 12.1551L22.2002 11.5507L15.484 18.2669C15.0965 17.9762 14.6252 17.8191 14.1408 17.8191C13.6507 17.8265 13.1744 17.9827 12.7751 18.2669L9.30507 14.6849L17.5213 6.4687L16.8049 5.75231L8.58867 13.9685L5.11862 10.4984C5.41997 10.107 5.58338 9.62683 5.58338 9.13281C5.58338 8.63879 5.41997 8.15864 5.11862 7.76717L11.8348 1.05094L11.1185 0.356934L4.40222 7.07316C4.01113 6.78647 3.54349 6.6228 3.05897 6.60303C2.69018 6.52414 2.30842 6.5287 1.94162 6.61638C1.57482 6.70406 1.23226 6.87265 0.939018 7.1098C0.645775 7.34694 0.409264 7.64665 0.246792 7.987C0.084321 8.32734 0 8.69971 0 9.07684C0 9.45397 0.084321 9.82634 0.246792 10.1667C0.409264 10.507 0.645775 10.8067 0.939018 11.0439C1.23226 11.281 1.57482 11.4496 1.94162 11.5373C2.30842 11.625 2.69018 11.6295 3.05897 11.5507C3.54137 11.5388 4.00918 11.3828 4.40222 11.1029L7.87227 14.6849L4.40222 18.2669C4.00918 17.9869 3.54137 17.831 3.05897 17.8191C2.55212 17.8154 2.05582 17.9639 1.63441 18.2456C1.213 18.5272 0.88592 18.929 0.695559 19.3987C0.505198 19.8685 0.460339 20.3846 0.566798 20.8802C0.673258 21.3757 0.926125 21.8279 1.29262 22.178C1.65912 22.5282 2.12234 22.7601 2.62224 22.8439C3.12215 22.9276 3.63567 22.8592 4.09626 22.6476C4.55684 22.436 4.94324 22.0909 5.20537 21.6571C5.4675 21.2233 5.59326 20.7207 5.56637 20.2146C5.56637 19.7302 5.40926 19.2589 5.11862 18.8713L8.58867 15.3789L12.0587 18.8713C11.7812 19.2656 11.6255 19.7327 11.611 20.2146C11.5779 20.5653 11.6184 20.919 11.7299 21.2532C11.8414 21.5873 12.0215 21.8945 12.2586 22.155C12.4957 22.4155 12.7846 22.6237 13.1067 22.7661C13.4289 22.9085 13.7773 22.9821 14.1296 22.9821C14.4818 22.9821 14.8302 22.9085 15.1524 22.7661C15.4746 22.6237 15.7635 22.4155 16.0005 22.155C16.2376 21.8945 16.4177 21.5873 16.5292 21.2532C16.6407 20.919 16.6812 20.5653 16.6481 20.2146C16.6481 19.7302 16.491 19.2589 16.2004 18.8713L22.9166 12.1551ZM3.05897 10.6328C2.86012 10.6357 2.66266 10.5991 2.47809 10.5251C2.29351 10.451 2.1255 10.341 1.98384 10.2014C1.84218 10.0619 1.72968 9.89549 1.65291 9.71204C1.57613 9.52858 1.5366 9.33168 1.53663 9.13281C1.51054 8.91892 1.53016 8.70193 1.59419 8.49619C1.65821 8.29045 1.76518 8.10065 1.90803 7.93933C2.05087 7.77801 2.22633 7.64885 2.42281 7.56039C2.61929 7.47193 2.83231 7.42619 3.04778 7.42619C3.26325 7.42619 3.47627 7.47193 3.67275 7.56039C3.86922 7.64885 4.04469 7.77801 4.18753 7.93933C4.33037 8.10065 4.43734 8.29045 4.50137 8.49619C4.56539 8.70193 4.58501 8.91892 4.55893 9.13281C4.55893 9.53062 4.4009 9.91214 4.1196 10.1934C3.83831 10.4747 3.45679 10.6328 3.05897 10.6328ZM3.05897 21.8265C2.65522 21.8265 2.26801 21.6661 1.98251 21.3806C1.69702 21.0951 1.53663 20.7079 1.53663 20.3041C1.53663 20.003 1.62591 19.7087 1.79319 19.4584C1.96047 19.208 2.19822 19.0129 2.4764 18.8977C2.75457 18.7825 3.06066 18.7523 3.35597 18.811C3.65127 18.8698 3.92253 19.0148 4.13543 19.2277C4.34834 19.4406 4.49333 19.7118 4.55207 20.0071C4.61081 20.3025 4.58066 20.6085 4.46544 20.8867C4.35021 21.1649 4.15509 21.4026 3.90474 21.5699C3.65439 21.7372 3.36006 21.8265 3.05897 21.8265ZM14.2527 21.8265C13.8489 21.8265 13.4617 21.6661 13.1762 21.3806C12.8907 21.0951 12.7303 20.7079 12.7303 20.3041C12.7303 20.003 12.8196 19.7087 12.9869 19.4584C13.1542 19.208 13.3919 19.0129 13.6701 18.8977C13.9483 18.7825 14.2544 18.7523 14.5497 18.811C14.845 18.8698 15.1162 19.0148 15.3292 19.2277C15.5421 19.4406 15.687 19.7118 15.7458 20.0071C15.8045 20.3025 15.7744 20.6085 15.6592 20.8867C15.5439 21.1649 15.3488 21.4026 15.0985 21.5699C14.8481 21.7372 14.5538 21.8265 14.2527 21.8265Z" fill="#758696"/>
</svg>
