<svg width="24" height="24" viewBox="0 0 24 24" fill="none" xmlns="http://www.w3.org/2000/svg">
<path d="M5.1268 23.3857C4.92688 23.3865 4.72883 23.3473 4.54429 23.2704C4.35975 23.1935 4.19244 23.0805 4.0522 22.938L0.447824 19.3336C0.305345 19.1934 0.192339 19.0261 0.115447 18.8415C0.0385547 18.657 -0.000670841 18.4589 7.57062e-05 18.259C-0.00194991 18.0589 0.0366926 17.8605 0.113659 17.6758C0.190626 17.491 0.304313 17.3239 0.447824 17.1844L17.1489 0.460995C17.4466 0.165696 17.8489 0 18.2682 0C18.6875 0 19.0899 0.165696 19.3876 0.460995L22.992 4.08776C23.1348 4.22558 23.2485 4.39077 23.3261 4.57348C23.4037 4.75619 23.4437 4.95266 23.4437 5.15116C23.4437 5.34967 23.4037 5.54614 23.3261 5.72885C23.2485 5.91155 23.1348 6.07675 22.992 6.21457L6.2014 22.938C6.06115 23.0805 5.89385 23.1935 5.70931 23.2704C5.52477 23.3473 5.32672 23.3865 5.1268 23.3857ZM3.11193 15.9531L1.16422 17.9456C1.11136 17.9884 1.06954 18.0433 1.04227 18.1056C1.015 18.1679 1.00308 18.2359 1.00751 18.3038C1.0064 18.3712 1.01982 18.4381 1.04686 18.4999C1.0739 18.5618 1.11393 18.617 1.16422 18.662L4.7686 22.2216C4.81464 22.2704 4.87016 22.3092 4.93175 22.3358C4.99335 22.3624 5.05972 22.3761 5.1268 22.3761C5.19388 22.3761 5.26025 22.3624 5.32184 22.3358C5.38344 22.3092 5.43896 22.2704 5.485 22.2216L22.2084 5.52056C22.3102 5.42733 22.374 5.29976 22.3875 5.16236C22.3915 5.09657 22.3816 5.03069 22.3584 4.96898C22.3353 4.90727 22.2994 4.85111 22.2532 4.80416L18.5816 1.17739C18.4905 1.09241 18.3705 1.04516 18.2458 1.04516C18.1212 1.04516 18.0012 1.09241 17.91 1.17739L15.9623 3.14749L17.619 4.80416L16.9026 5.52056L15.2011 3.8415L12.9624 6.08024L15.6713 8.8339L14.9549 9.55029L12.1788 6.8638L9.9401 9.10255L11.5968 10.7592L10.8804 11.4756L9.15654 9.88611L6.91779 12.1249L9.51474 14.8785L8.79834 15.7068L6.13423 12.9308L3.89549 15.1695L5.55216 16.8262L4.83576 17.5426L3.11193 15.9531Z" fill="#758696"/>
</svg>
