<svg width="21" height="21" viewBox="0 0 21 21" fill="none" xmlns="http://www.w3.org/2000/svg">
<path d="M19.9252 8.29559L18.4512 8.04554C18.2977 7.54982 18.1003 7.07165 17.859 6.61542L18.7276 5.40025C19.0961 4.8826 19.0391 4.17631 18.5872 3.72885L17.2799 2.42156C17.0343 2.17589 16.7096 2.0399 16.3631 2.0399C16.0911 2.0399 15.8323 2.12325 15.6129 2.28118L14.3934 3.14978C13.9196 2.89973 13.4239 2.69355 12.9106 2.54L12.6649 1.08356C12.5596 0.456236 12.0201 0 11.384 0H9.53708C8.90098 0 8.3614 0.456236 8.25611 1.08356L8.00167 2.5751C7.51034 2.72864 7.03217 2.93044 6.57593 3.1761L5.36954 2.3075C5.1502 2.14957 4.88699 2.06622 4.615 2.06622C4.26844 2.06622 3.93942 2.20221 3.69814 2.44788L2.38646 3.75517C1.939 4.20263 1.87759 4.90892 2.24608 5.42657L3.12346 6.65929C2.88218 7.11991 2.68916 7.59808 2.54 8.0938L1.08356 8.33946C0.456236 8.44475 0 8.98433 0 9.62043V11.4673C0 12.1034 0.456236 12.643 1.08356 12.7483L2.5751 13.0027C2.72864 13.494 2.93044 13.9722 3.1761 14.4285L2.31189 15.6305C1.94339 16.1481 2.00042 16.8544 2.45227 17.3019L3.75956 18.6091C4.00522 18.8548 4.32985 18.9908 4.67642 18.9908C4.9484 18.9908 5.20723 18.9075 5.42657 18.7495L6.65929 17.8722C7.10236 18.1047 7.56737 18.2933 8.04554 18.4424L8.29121 19.9164C8.39649 20.5438 8.93608 21 9.57218 21H11.4234C12.0595 21 12.5991 20.5438 12.7044 19.9164L12.9545 18.4424C13.4502 18.2889 13.9283 18.0915 14.3846 17.8502L15.5998 18.7188C15.8191 18.8767 16.0823 18.9601 16.3543 18.9601C16.7009 18.9601 17.0255 18.8241 17.2712 18.5784L18.5784 17.2712C19.0259 16.8237 19.0873 16.1174 18.7188 15.5998L17.8502 14.3802C18.0915 13.9196 18.2933 13.4414 18.4424 12.9501L19.9164 12.7044C20.5438 12.5991 21 12.0595 21 11.4234V9.57656C21.0088 8.94046 20.5525 8.40088 19.9252 8.29559ZM19.8243 11.4234C19.8243 11.4805 19.7848 11.5287 19.7278 11.5375L17.8853 11.8446C17.6528 11.8841 17.4686 12.0552 17.4115 12.2789C17.2448 12.9238 16.9904 13.5423 16.6482 14.117C16.5298 14.3188 16.5385 14.5688 16.6745 14.7619L17.7581 16.2885C17.7888 16.3324 17.7844 16.3982 17.7449 16.4376L16.4376 17.7449C16.4069 17.7756 16.3762 17.78 16.3543 17.78C16.328 17.78 16.306 17.7713 16.2885 17.7581L14.7662 16.6745C14.5776 16.5385 14.3232 16.5298 14.1214 16.6482C13.5467 16.9904 12.9281 17.2448 12.2833 17.4115C12.0552 17.4686 11.8841 17.6572 11.849 17.8853L11.5375 19.7278C11.5287 19.7848 11.4805 19.8243 11.4234 19.8243H9.57656C9.51953 19.8243 9.47128 19.7848 9.4625 19.7278L9.15542 17.8853C9.11594 17.6528 8.94485 17.4686 8.72112 17.4115C8.0938 17.2492 7.48841 16.9992 6.9225 16.6745C6.83037 16.6219 6.72509 16.5956 6.62419 16.5956C6.50574 16.5956 6.38291 16.6307 6.28201 16.7052L4.74661 17.7976C4.72467 17.8107 4.70274 17.8195 4.6808 17.8195C4.66325 17.8195 4.62816 17.8151 4.59745 17.7844L3.29016 16.4771C3.25068 16.4376 3.24629 16.3762 3.277 16.328L4.35617 14.8145C4.49217 14.6215 4.50094 14.367 4.38249 14.1652C4.04032 13.5949 3.77711 12.9764 3.6104 12.3315C3.54899 12.1078 3.36474 11.9367 3.13662 11.8972L1.28097 11.5814C1.22394 11.5726 1.18446 11.5243 1.18446 11.4673V9.62043C1.18446 9.5634 1.22394 9.51515 1.28097 9.50637L3.1103 9.19929C3.3428 9.15981 3.53144 8.98872 3.58847 8.7606C3.75078 8.11573 4.00084 7.49279 4.33863 6.91811C4.45707 6.71632 4.44391 6.46626 4.30792 6.27763L3.21558 4.74222C3.18488 4.69835 3.18926 4.63255 3.22874 4.59306L4.53604 3.28577C4.56674 3.25507 4.59745 3.25068 4.61939 3.25068C4.64571 3.25068 4.66764 3.25945 4.68519 3.27261L6.19866 4.35179C6.39169 4.48778 6.64613 4.49655 6.84792 4.37811C7.41822 4.03593 8.03677 3.77272 8.68164 3.60602C8.90537 3.5446 9.07646 3.36035 9.11594 3.13223L9.4318 1.27658C9.44057 1.21955 9.48882 1.18007 9.54585 1.18007H11.3927C11.4498 1.18007 11.498 1.21955 11.5068 1.27658L11.8139 3.10591C11.8534 3.33842 12.0244 3.52705 12.2526 3.58408C12.915 3.75078 13.5467 4.00961 14.1345 4.35617C14.3363 4.47462 14.5864 4.46585 14.7794 4.32985L16.2929 3.24191C16.3148 3.22874 16.3367 3.21997 16.3587 3.21997C16.3762 3.21997 16.4113 3.22436 16.442 3.25507L17.7493 4.56236C17.7888 4.60184 17.7932 4.66325 17.7625 4.71151L16.6789 6.23376C16.5429 6.42239 16.5342 6.67683 16.6526 6.87863C16.9948 7.45331 17.2492 8.07186 17.4159 8.71673C17.4729 8.94485 17.6616 9.11594 17.8897 9.15103L19.7322 9.4625C19.7892 9.47128 19.8287 9.51953 19.8287 9.57656V11.4234H19.8243Z" fill="#6E7793"/>
<path d="M10.5021 5.96606C8.00158 5.96606 5.97046 7.99719 5.97046 10.4977C5.97046 12.9982 8.00158 15.0294 10.5021 15.0294C13.0026 15.0294 15.0338 12.9982 15.0338 10.4977C15.0338 7.99719 13.0026 5.96606 10.5021 5.96606ZM10.5021 13.8449C8.65523 13.8449 7.15492 12.3446 7.15492 10.4977C7.15492 8.65084 8.65523 7.15052 10.5021 7.15052C12.349 7.15052 13.8493 8.65084 13.8493 10.4977C13.8493 12.3446 12.349 13.8449 10.5021 13.8449Z" fill="#6E7793"/>
</svg>
