<svg style="position: absolute;  width: 0; height: 0; overflow: hidden;" version="1.1" xmlns="http://www.w3.org/2000/svg" xmlns:xlink="http://www.w3.org/1999/xlink">
<defs>
<symbol id="icon-exchange" width="25" height="21" viewBox="0 0 25 21">
    <title>exchange</title>
    <path d="M24.7386 7.08305L18.4885 0.832946C18.1397 0.484308 17.5744 0.484413 17.2258 0.833156C17.0584 1.00057 16.9644 1.22752 16.9644 1.46425V4.14286H10.7142C10.2211 4.14286 9.82136 4.54261 9.82136 5.03575C9.82136 5.52888 10.2211 5.92864 10.7142 5.92864H17.8572C18.3504 5.92864 18.7501 5.52888 18.7501 5.03575V3.61959L22.8448 7.71431L18.7501 11.809V10.3929C18.7501 9.89978 18.3504 9.50003 17.8572 9.50003H8.03563V6.82142C8.03553 6.32828 7.63567 5.92864 7.14259 5.92874C6.90591 5.92879 6.67891 6.02281 6.51149 6.19017L0.261439 12.4403C-0.0871464 12.789 -0.0871464 13.3541 0.261439 13.7028L6.51155 19.9529C6.67896 20.1204 6.90601 20.2145 7.1428 20.2145C7.26014 20.2149 7.37644 20.1918 7.48474 20.1467C7.81831 20.0083 8.03574 19.6828 8.03563 19.3216V16.643H14.2857C14.7789 16.643 15.1786 16.2433 15.1786 15.7501C15.1786 15.257 14.7789 14.8572 14.2857 14.8572H7.1428C6.64966 14.8572 6.24991 15.257 6.24991 15.7501V17.1662L2.1552 13.0715L6.24991 8.97681V10.3929C6.24991 10.8861 6.64966 11.2858 7.1428 11.2858H16.9644V13.9644C16.9645 14.4576 17.3643 14.8572 17.8574 14.8571C18.0941 14.857 18.3211 14.763 18.4885 14.5957L24.7386 8.34556C25.0871 7.99687 25.0871 7.43169 24.7386 7.08305Z"/>
</symbol>
<symbol id="icon-preemptive" width="20" height="23" viewBox="0 0 20 23">
    <title>preemtive</title>
    <path d="M15.4091 3.59375H14.5V1.79688H15.4091C15.9104 1.79688 16.3182 1.39384 16.3182 0.898438V0H18.1364V0.898438C18.1364 1.39384 18.5443 1.79688 19.0455 1.79688H19.9545V3.59375H19.0455C18.5443 3.59375 18.1364 3.99678 18.1364 4.49219V5.39062H16.3182V4.49219C16.3182 3.99678 15.9104 3.59375 15.4091 3.59375ZM19.1818 21.6523C19.1818 22.3966 18.5714 23 17.8182 23C17.803 23 17.7879 22.9993 17.7727 22.9989V23H2V22.9989C1.98494 22.9993 1.96989 23 1.95455 23C1.20142 23 0.590909 22.3966 0.590909 21.6523C0.590909 20.908 1.20142 20.3047 1.95455 20.3047C2.47912 20.3047 2.93423 20.5975 3.16236 21.0265C3.75213 20.8211 4.19574 20.435 4.50398 19.8609C4.87543 19.1696 4.90937 18.4477 4.90952 18.4407L4.91051 18.3942C3.76989 17.7286 2.77102 16.8409 1.96378 15.7655C0.678977 14.0538 0 12.0195 0 9.88281C0 7.24295 1.0402 4.76116 2.92898 2.89465C4.81776 1.02787 7.32884 0 10 0C10.9193 0 11.8195 0.121851 12.6818 0.35741V2.24343C11.8413 1.95438 10.9389 1.79688 10 1.79688C5.48849 1.79688 1.81818 5.42418 1.81818 9.88281C1.81818 13.3922 4.07415 16.4703 7.43864 17.5645H12.5625C15.9303 16.4703 18.1818 13.4029 18.1818 9.88281C18.1818 8.93805 18.0166 8.03105 17.7138 7.1875H19.6253C19.872 8.05351 20 8.9584 20 9.88281C20 12.0379 19.3104 14.0861 18.0057 15.806C17.1651 16.9142 16.0866 17.839 14.869 18.5133C14.8884 18.7237 14.9702 19.3288 15.2945 19.9075C15.6018 20.456 16.0368 20.8269 16.6105 21.0268C16.8385 20.5975 17.2937 20.3047 17.8182 20.3047C18.5714 20.3047 19.1818 20.908 19.1818 21.6523ZM13.973 21.2031C13.8534 21.0354 13.7507 20.8671 13.6631 20.7035C13.4048 20.2231 13.2547 19.7482 13.1673 19.3613H6.60554C6.51818 19.7482 6.3679 20.2231 6.1098 20.7035C6.02202 20.8671 5.91946 21.0354 5.79972 21.2031H13.973ZM10.0455 3.45898C6.48636 3.45898 3.59091 6.32051 3.59091 9.83789H5.40909C5.40909 7.31132 7.48906 5.25586 10.0455 5.25586V3.45898ZM4.25668 12.6618C4.78452 13.7172 5.59702 14.6075 6.60582 15.2364L7.57599 13.7166C6.85014 13.2643 6.26591 12.6242 5.88636 11.8656L4.25668 12.6618Z"/>
</symbol>
<symbol id="icon-drop-nav" width="10" height="9" viewBox="0 0 10 9">
    <title>nav drop</title>
    <path d="M9.5 8H0.5C0.224003 8 0 8.224 0 8.5C0 8.77601 0.224003 9.00002 0.5 9.00002H9.5C9.776 9.00002 10 8.77601 10 8.49998C10 8.224 9.776 8 9.5 8ZM0.5 1H9.5C9.776 1 10 0.776013 10 0.5C10 0.223987 9.776 0 9.5 0H0.5C0.224003 1.63399e-05 0 0.224003 0 0.500016C0 0.776013 0.224003 1 0.5 1ZM9.5 4H0.5C0.224003 4 0 4.224 0 4.50002C0 4.77603 0.224003 5.00002 0.5 5.00002H9.5C9.776 5.00002 10 4.77601 10 4.50002C10 4.22402 9.776 4 9.5 4Z" fill="#E5E5E5"/>
</symbol>
<symbol id="icon-language" width="21" height="21" viewBox="0 0 21 21">
    <title>nav language</title>
    <path d="M10.5 0C4.71023 0 0 4.71023 0 10.5C0 16.2898 4.71023 21 10.5 21C16.2898 21 21 16.2898 21 10.5C21 4.71023 16.2898 0 10.5 0ZM9.88477 5.15387C8.94878 5.11366 8.02224 4.98212 7.13752 4.76823C7.27883 4.43337 7.43216 4.11182 7.5975 3.80708C8.27586 2.55707 9.10867 1.67988 9.88477 1.36217V5.15387ZM9.88477 6.3853V9.88477H6.04195C6.09611 8.51891 6.3289 7.16299 6.71391 5.92964C7.73417 6.18663 8.80522 6.3422 9.88477 6.3853ZM9.88477 11.1152V14.6147C8.80522 14.6578 7.73417 14.8134 6.71391 15.0704C6.3289 13.837 6.09611 12.4811 6.04195 11.1152H9.88477ZM9.88477 15.8461V19.6378C9.10867 19.3201 8.27586 18.4429 7.5975 17.1929C7.43216 16.8882 7.27883 16.5666 7.13752 16.2318C8.02224 16.0179 8.94862 15.8863 9.88477 15.8461ZM11.1152 15.8461C12.0512 15.8863 12.9778 16.0179 13.8625 16.2318C13.7212 16.5666 13.5678 16.8882 13.4025 17.1929C12.7241 18.4429 11.8913 19.3201 11.1152 19.6378V15.8461ZM11.1152 14.6147V11.1152H14.958C14.9039 12.4811 14.6711 13.837 14.2861 15.0704C13.2658 14.8134 12.1948 14.6578 11.1152 14.6147ZM11.1152 9.88477V6.3853C12.1948 6.3422 13.2658 6.18663 14.2861 5.92964C14.6711 7.16299 14.9039 8.51891 14.958 9.88477H11.1152ZM11.1152 5.15387V1.36217C11.8913 1.67988 12.7241 2.55707 13.4025 3.80708C13.5678 4.11182 13.7212 4.43337 13.8625 4.76823C12.9778 4.98212 12.0512 5.11366 11.1152 5.15387ZM14.484 3.22021C14.1759 2.6524 13.8412 2.15188 13.4884 1.7249C14.7185 2.14499 15.8328 2.8171 16.7699 3.67907C16.2355 3.96538 15.6595 4.21404 15.0535 4.42184C14.8816 4.00431 14.6916 3.60265 14.484 3.22021ZM6.51604 3.22021C6.3084 3.60265 6.11838 4.00431 5.94646 4.42184C5.34052 4.21404 4.76454 3.96522 4.23006 3.67907C5.16717 2.8171 6.28148 2.14499 7.51163 1.7249C7.15883 2.15188 6.8243 2.65224 6.51604 3.22021ZM5.53022 5.57829C5.11029 6.92171 4.8634 8.38625 4.8102 9.88477H1.25146C1.38316 7.88509 2.15108 6.05637 3.35527 4.60064C4.02354 4.98388 4.75541 5.31168 5.53022 5.57829ZM4.8102 11.1152C4.8634 12.6139 5.11029 14.0783 5.53022 15.4217C4.75541 15.6883 4.02354 16.0161 3.35527 16.3994C2.15108 14.9436 1.38316 13.1149 1.25146 11.1152H4.8102ZM5.94646 16.5782C6.11838 16.9957 6.3084 17.3974 6.51604 17.7798C6.8243 18.3476 7.15883 18.8481 7.51163 19.2751C6.28148 18.855 5.16717 18.1829 4.23022 17.3209C4.76438 17.0348 5.34052 16.786 5.94646 16.5782ZM14.484 17.7798C14.6916 17.3974 14.8816 16.9957 15.0535 16.5782C15.6595 16.786 16.2355 17.0348 16.7699 17.3209C15.8328 18.1829 14.7185 18.855 13.4884 19.2751C13.8412 18.8481 14.1757 18.3478 14.484 17.7798ZM15.4698 15.4217C15.8897 14.0783 16.1366 12.6137 16.1898 11.1152H19.7485C19.6168 13.1149 18.8489 14.9436 17.6447 16.3994C16.9765 16.0161 16.2446 15.6883 15.4698 15.4217ZM16.1898 9.88477C16.1366 8.38609 15.8897 6.92171 15.4698 5.57829C16.2446 5.31168 16.9765 4.98388 17.6447 4.60064C18.8489 6.05637 19.6168 7.88509 19.7485 9.88477H16.1898Z" fill="#6E7793"/>
</symbol>
</defs>
</svg>
