<svg width="22" height="23" viewBox="0 0 22 23" fill="none" xmlns="http://www.w3.org/2000/svg">
<path d="M20.1495 14.966H15.1123V12.4362C15.1362 12.2433 15.1979 12.057 15.294 11.8879C15.39 11.7189 15.5185 11.5705 15.672 11.4512C15.8126 11.3106 15.9804 11.2004 16.1652 11.1272C16.3501 11.0541 16.5479 11.0196 16.7466 11.0258C17.1078 11.0486 17.4491 11.1994 17.7092 11.4512C17.8498 11.5917 17.96 11.7596 18.0332 11.9444C18.1063 12.1292 18.1409 12.3271 18.1346 12.5258V13.0407H19.142V12.4362C19.1416 12.0998 19.0809 11.7662 18.9629 11.4512C18.8323 11.1411 18.6421 10.8597 18.4033 10.6228C18.1717 10.3935 17.8981 10.2111 17.5973 10.0855C17.2924 9.95956 16.9645 9.89857 16.6346 9.90644C16.3028 9.90141 15.974 9.97024 15.672 10.1079C15.3675 10.2389 15.0874 10.4206 14.8436 10.6452C14.6211 10.8822 14.4395 11.1546 14.3063 11.4512C14.1733 11.7547 14.1047 12.0825 14.1049 12.4138V14.966H13.0974C12.9646 14.9637 12.8326 14.9883 12.7095 15.0383C12.5864 15.0883 12.4746 15.1627 12.381 15.257C12.205 15.4377 12.1015 15.6767 12.09 15.9287V21.0106C12.0877 21.1435 12.1123 21.2754 12.1623 21.3986C12.2123 21.5217 12.2867 21.6334 12.381 21.727C12.5754 21.9095 12.8308 22.0133 13.0974 22.018H20.1495C20.2842 22.0188 20.4175 21.9913 20.5409 21.9373C20.6643 21.8834 20.775 21.8041 20.8659 21.7046C20.9618 21.617 21.0376 21.5095 21.0878 21.3897C21.1381 21.2698 21.1617 21.1405 21.1569 21.0106V15.9287C21.154 15.7993 21.1256 15.6718 21.0734 15.5534C21.0212 15.435 20.9462 15.328 20.8526 15.2386C20.7591 15.1492 20.6488 15.0791 20.5282 15.0323C20.4075 14.9856 20.2788 14.963 20.1495 14.966ZM13.0974 21.0106V15.9287H20.1495V21.0106H13.0974Z" fill="#758696"/>
<path d="M17.1273 17.9883H16.1199V20.0031H17.1273V17.9883Z" fill="#758696"/>
<path d="M16.7243 4.37642C16.7263 4.17632 16.6877 3.97789 16.6107 3.79317C16.5337 3.60845 16.42 3.44129 16.2765 3.30183L13.6572 0.704884C13.5194 0.56202 13.3542 0.448392 13.1715 0.370782C12.9888 0.293173 12.7923 0.253174 12.5938 0.253174C12.3953 0.253174 12.1988 0.293173 12.0161 0.370782C11.8334 0.448392 11.6682 0.56202 11.5304 0.704884L0.336664 11.8986C0.226472 11.9866 0.138622 12.0994 0.0802667 12.2278C0.0219117 12.3562 -0.00529834 12.4965 0.000852207 12.6374V15.9283C-0.0039004 16.0582 0.0196704 16.1876 0.0699279 16.3074C0.120185 16.4272 0.195925 16.5347 0.291889 16.6224C0.384385 16.7197 0.49541 16.7976 0.618438 16.8514C0.741466 16.9052 0.874013 16.9339 1.00829 16.9358H4.32163C4.45632 16.9366 4.58968 16.9091 4.71308 16.8551C4.83649 16.8011 4.94719 16.7218 5.03803 16.6224L16.2317 5.42863C16.3797 5.29481 16.4994 5.13282 16.584 4.95215C16.6686 4.77148 16.7163 4.57575 16.7243 4.37642ZM10.5901 3.07795L11.8886 4.37642L3.53807 12.7269L2.2396 11.4509L10.5901 3.07795ZM4.32163 15.9283H1.00829V12.6374L1.50081 12.1449L4.83654 15.4582L4.32163 15.9283ZM5.55294 14.697L4.23208 13.3986L12.605 5.09282L13.9035 6.39129L5.55294 14.697ZM15.6721 4.73462L14.7318 5.6749L11.3065 2.36155L12.2468 1.42128C12.2885 1.36567 12.3426 1.32054 12.4047 1.28945C12.4669 1.25837 12.5355 1.24218 12.605 1.24218C12.6745 1.24218 12.743 1.25837 12.8052 1.28945C12.8674 1.32054 12.9215 1.36567 12.9632 1.42128L15.6721 4.01823C15.7277 4.05993 15.7728 4.11401 15.8039 4.17618C15.835 4.23836 15.8512 4.30691 15.8512 4.37642C15.8512 4.44594 15.835 4.51449 15.8039 4.57666C15.7728 4.63884 15.7277 4.69292 15.6721 4.73462Z" fill="#758696"/>
</svg>
