<svg width="21" height="15" viewBox="0 0 21 15" fill="none" xmlns="http://www.w3.org/2000/svg">
<path d="M20.1487 7.28969C19.3385 5.28448 17.9547 3.56283 16.1707 2.34029C14.3866 1.11775 12.2816 0.448644 10.1191 0.416748C7.94199 0.434006 5.81881 1.09609 4.01776 2.31937C2.21671 3.54265 0.818593 5.27224 0 7.28969L0 7.46879V7.64789C0.818593 9.66534 2.21671 11.3949 4.01776 12.6182C5.81881 13.8415 7.94199 14.5036 10.1191 14.5208C12.2816 14.4889 14.3866 13.8198 16.1707 12.5973C17.9547 11.3748 19.3385 9.65311 20.1487 7.64789V7.46879V7.28969ZM10.1191 13.5134C8.20456 13.4683 6.34313 12.8749 4.75581 11.8034C3.16849 10.732 1.92194 9.22758 1.16415 7.46879C1.92648 5.71327 3.17416 4.21187 4.76049 3.14109C6.34683 2.07031 8.20589 1.47467 10.1191 1.42418C12.0337 1.46924 13.8951 2.06271 15.4824 3.13416C17.0698 4.2056 18.3163 5.71001 19.0741 7.46879C18.3186 9.22922 17.0726 10.7351 15.4848 11.8069C13.897 12.8787 12.0343 13.4711 10.1191 13.5134Z" fill="#758696"/>
<path d="M10.1187 4.44686C9.52099 4.44686 8.93665 4.62412 8.43964 4.95621C7.94262 5.28831 7.55525 5.76033 7.3265 6.31258C7.09775 6.86483 7.03789 7.47252 7.15451 8.05879C7.27113 8.64506 7.55897 9.18358 7.98165 9.60626C8.40433 10.0289 8.94285 10.3168 9.52912 10.4334C10.1154 10.55 10.7231 10.4902 11.2753 10.2614C11.8276 10.0327 12.2996 9.64528 12.6317 9.14827C12.9638 8.65125 13.141 8.06692 13.141 7.46917C13.144 7.07144 13.0679 6.67709 12.9171 6.30906C12.7662 5.94104 12.5437 5.60668 12.2625 5.32543C11.9812 5.04419 11.6469 4.82168 11.2788 4.67085C10.9108 4.52002 10.5165 4.44388 10.1187 4.44686Z" fill="#758696"/>
</svg>
