<svg width="21" height="21" viewBox="0 0 21 21" fill="none" xmlns="http://www.w3.org/2000/svg">
<path d="M20.3848 11.1152H19.7695V9.22852C19.7695 8.42647 19.2552 7.74266 18.5391 7.48856V5.53711C18.5391 4.51941 17.7111 3.69141 16.6934 3.69141H14.8477V0.615234C14.8477 0.275414 14.5722 0 14.2324 0H4.34766C4.00784 0 3.73242 0.275414 3.73242 0.615234V3.69141H2.46094C1.1039 3.69141 0 4.7953 0 6.15234V17.8828C0 18.7044 0.318192 19.4824 0.896095 20.0735C1.48009 20.6709 2.25426 21 3.07617 21H17.9238C18.9415 21 19.7695 20.172 19.7695 19.1543V17.2676H20.3848C20.7246 17.2676 21 16.9922 21 16.6523V11.7305C21 11.3906 20.7246 11.1152 20.3848 11.1152ZM16.6934 4.92188C17.0325 4.92188 17.3086 5.19793 17.3086 5.53711V7.38281H14.8477V4.92188H16.6934ZM13.6172 7.38281H9.88477V1.23047H13.6172V7.38281ZM7.42383 7.38281V1.23047H8.6543V7.38281H7.42383ZM4.96289 1.23047H6.19336V7.38281H4.96289V1.23047ZM2.46094 4.92188H3.73242V7.38281H2.46094C1.78242 7.38281 1.23047 6.83086 1.23047 6.15234C1.23047 5.47382 1.78242 4.92188 2.46094 4.92188ZM18.5391 19.1543C18.5391 19.4935 18.263 19.7695 17.9238 19.7695H3.07617C2.07561 19.7695 1.23047 18.9055 1.23047 17.8828V8.28227C1.59272 8.49232 2.01281 8.61328 2.46094 8.61328H17.9238C18.263 8.61328 18.5391 8.88934 18.5391 9.22852V11.1152H16.6934C14.9971 11.1152 13.6172 12.4952 13.6172 14.1914C13.6172 15.8876 14.9971 17.2676 16.6934 17.2676H18.5391V19.1543ZM19.7695 16.0371H16.6934C15.6757 16.0371 14.8477 15.2091 14.8477 14.1914C14.8477 13.1737 15.6757 12.3457 16.6934 12.3457H19.7695V16.0371Z" fill="#6E7793"/>
</svg>
