<svg width="27" height="19" viewBox="0 0 27 19" fill="none" xmlns="http://www.w3.org/2000/svg">
<path d="M9.29079 17.1011C13.7683 17.1011 16.6115 12.4222 13.9474 9.3103C13.5152 8.69644 12.9236 8.21234 12.2363 7.91031C11.549 7.60828 10.7923 7.4998 10.0478 7.59661C9.30339 7.69341 8.59956 7.9918 8.01238 8.45955C7.4252 8.9273 6.97701 9.54661 6.71623 10.2506C6.19094 11.8437 5.4368 13.352 4.47749 14.7281C3.89017 15.5699 3.2548 16.3772 2.57456 17.1459L9.29079 17.1011ZM0 18.1086L0.87311 17.2578L1.09698 17.0116L1.67906 16.3623C2.30591 15.6459 2.93275 14.8624 3.51483 14.1236C4.43938 12.8382 5.17798 11.4289 5.7088 9.93715C6.02623 9.0642 6.57487 8.29389 7.29609 7.70852C8.01732 7.12316 8.88403 6.74474 9.80361 6.6137C10.7232 6.48266 11.6611 6.60392 12.5171 6.96453C13.3732 7.32513 14.1151 7.91153 14.6638 8.66107C17.9323 12.4669 14.6638 18.1086 9.24601 18.1086H0ZM16.5219 0.982178L17.1936 1.72096L15.6712 3.01943C15.5302 3.15137 15.4178 3.31085 15.341 3.48799C15.2641 3.66513 15.2245 3.85617 15.2245 4.04926C15.2245 4.24235 15.2641 4.43338 15.341 4.61052C15.4178 4.78767 15.5302 4.94714 15.6712 5.07908L17.5518 6.95962C17.6892 7.09906 17.853 7.20979 18.0337 7.28536C18.2143 7.36094 18.4082 7.39986 18.604 7.39986C18.7998 7.39986 18.9936 7.36094 19.1743 7.28536C19.3549 7.20979 19.5187 7.09906 19.6562 6.95962L25.3874 0.982178L26.1261 1.69858L20.4173 7.69841C20.1878 7.93537 19.9129 8.12377 19.6091 8.25243C19.3053 8.3811 18.9787 8.4474 18.6487 8.4474C18.3188 8.4474 17.9922 8.3811 17.6884 8.25243C17.3846 8.12377 17.1097 7.93537 16.8801 7.69841L14.9996 5.79548C14.7604 5.56949 14.5699 5.29706 14.4397 4.99488C14.3095 4.69269 14.2423 4.36711 14.2423 4.03806C14.2423 3.70902 14.3095 3.38343 14.4397 3.08125C14.5699 2.77906 14.7604 2.50664 14.9996 2.28065L16.5219 0.982178Z" fill="#758696"/>
</svg>
