<svg width="22" height="21" viewBox="0 0 22 21" fill="none" xmlns="http://www.w3.org/2000/svg">
<path d="M0.731364 6.34883C1.13537 6.34883 1.46273 6.02137 1.46273 5.61746V2.49912L6.1732 7.20862C6.31606 7.35138 6.50319 7.42276 6.69032 7.42276C6.87755 7.42276 7.06478 7.35138 7.20754 7.20852C7.49317 6.9229 7.49317 6.4598 7.20745 6.17428L2.49678 1.46468H5.6158C6.01971 1.46468 6.34717 1.13723 6.34717 0.733317C6.34717 0.329409 6.01981 0.00195312 5.6158 0.00195312H0.731364C0.327359 0.00195312 0 0.329409 0 0.733317V5.61756C0 6.02137 0.327359 6.34883 0.731364 6.34883Z" fill="#6E7793"/>
<path d="M20.4023 14.6432C19.9983 14.6432 19.6709 14.9707 19.6709 15.3746V18.493L14.8155 13.6376C14.5297 13.3519 14.0667 13.3519 13.7811 13.6376C13.4955 13.9232 13.4955 14.3863 13.7811 14.6718L18.6365 19.5272H15.5182C15.1142 19.5272 14.7869 19.8546 14.7869 20.2585C14.7869 20.6625 15.1142 20.9899 15.5182 20.9899H20.4024C20.8064 20.9899 21.1338 20.6625 21.1338 20.2585V15.3746C21.1337 14.9707 20.8062 14.6432 20.4023 14.6432Z" fill="#6E7793"/>
<path d="M6.31821 13.6376L1.46322 18.4929V15.3746C1.46322 14.9707 1.13586 14.6432 0.731852 14.6432C0.327847 14.6432 0.000488281 14.9707 0.000488281 15.3746V20.2588C0.000488281 20.6627 0.327847 20.9901 0.731852 20.9901H5.6158C6.01971 20.9901 6.34717 20.6627 6.34717 20.2588C6.34717 19.8548 6.01981 19.5274 5.6158 19.5274H2.49746L7.35255 14.6718C7.63817 14.3862 7.63817 13.9231 7.35245 13.6375C7.06703 13.3519 6.60393 13.3519 6.31821 13.6376Z" fill="#6E7793"/>
<path d="M20.1113 0.00195312H15.2272C14.8232 0.00195312 14.4958 0.329409 14.4958 0.733317C14.4958 1.13723 14.8232 1.46468 15.2272 1.46468H18.3456L13.6358 6.17476C13.3502 6.46039 13.3502 6.92349 13.6359 7.20911C13.7787 7.35187 13.9659 7.42325 14.1531 7.42325C14.3402 7.42325 14.5274 7.35177 14.6703 7.20901L19.3801 2.49893V5.61746C19.3801 6.02137 19.7074 6.34883 20.1114 6.34883C20.5154 6.34883 20.8428 6.02137 20.8428 5.61746V0.733317C20.8427 0.329312 20.5152 0.00195312 20.1113 0.00195312Z" fill="#6E7793"/>
</svg>
