<svg width="23" height="23" viewBox="0 0 23 23" fill="none" xmlns="http://www.w3.org/2000/svg">
<path d="M19.6786 0.171143C19.0076 0.171143 18.3642 0.437672 17.8897 0.912098C17.4153 1.38652 17.1488 2.02998 17.1488 2.70092C17.1707 3.1815 17.3257 3.64654 17.5965 4.04417L3.89542 17.7453C3.49778 17.4745 3.03275 17.3195 2.55217 17.2975C2.0509 17.2931 1.55961 17.4377 1.14065 17.713C0.721696 17.9882 0.393966 18.3817 0.199056 18.8436C0.00414542 19.3054 -0.0491578 19.8148 0.0459114 20.307C0.140981 20.7992 0.380136 21.252 0.733024 21.6081C1.08591 21.9641 1.53662 22.2073 2.02795 22.3067C2.51928 22.4062 3.02908 22.3574 3.49264 22.1666C3.95621 21.9758 4.35263 21.6516 4.63161 21.2351C4.91059 20.8186 5.05954 20.3286 5.05956 19.8273C5.05218 19.3372 4.89603 18.861 4.61181 18.4617L18.3129 4.76057C18.7122 5.04478 19.1885 5.20093 19.6786 5.20832C20.3436 5.20832 20.9813 4.94415 21.4516 4.47392C21.9218 4.00369 22.186 3.36593 22.186 2.70092C22.1889 2.36977 22.1262 2.04131 22.0016 1.73451C21.8769 1.42771 21.6926 1.14865 21.4595 0.913438C21.2264 0.678229 20.949 0.491531 20.6433 0.364125C20.3376 0.236719 20.0097 0.171129 19.6786 0.171143V0.171143ZM2.55217 21.3273C2.35332 21.3302 2.15586 21.2936 1.97128 21.2196C1.78671 21.1455 1.6187 21.0355 1.47704 20.8959C1.33537 20.7564 1.22288 20.59 1.1461 20.4065C1.06933 20.2231 1.0298 20.0262 1.02982 19.8273C1.00374 19.6134 1.02336 19.3964 1.08739 19.1907C1.15141 18.985 1.25838 18.7952 1.40122 18.6338C1.54407 18.4725 1.71953 18.3434 1.91601 18.2549C2.11249 18.1664 2.3255 18.1207 2.54098 18.1207C2.75645 18.1207 2.96947 18.1664 3.16594 18.2549C3.36242 18.3434 3.53788 18.4725 3.68073 18.6338C3.82357 18.7952 3.93054 18.985 3.99456 19.1907C4.05859 19.3964 4.07821 19.6134 4.05213 19.8273C4.05213 20.2251 3.8941 20.6066 3.6128 20.8879C3.3315 21.1692 2.94998 21.3273 2.55217 21.3273ZM19.6786 4.20088C19.3756 4.2053 19.0782 4.11923 18.8245 3.95367C18.5707 3.78811 18.3721 3.55059 18.2542 3.27153C18.1362 2.99246 18.1041 2.68453 18.1622 2.38715C18.2202 2.08978 18.3656 1.81648 18.5799 1.60224C18.7941 1.38799 19.0674 1.24255 19.3648 1.18453C19.6622 1.12651 19.9701 1.15854 20.2492 1.27652C20.5282 1.39451 20.7657 1.59309 20.9313 1.84684C21.0969 2.10059 21.1829 2.39797 21.1785 2.70092C21.1785 3.09874 21.0205 3.48026 20.7392 3.76155C20.4579 4.04285 20.0764 4.20088 19.6786 4.20088Z" fill="#758696"/>
</svg>
