<svg xmlns="http://www.w3.org/2000/svg" xmlns:xlink="http://www.w3.org/1999/xlink" viewBox="0 0 449.79 158.43"><defs><style>.cls-1{fill:#f9b318;}.cls-2{fill:url(#linear-gradient);}.cls-3{fill:#fbb416;}.cls-4{fill:#fff;}</style><linearGradient id="linear-gradient" x1="28.6" y1="21.7" x2="136.65" y2="129.76" gradientTransform="translate(-3.8 3.91) rotate(-0.3)" gradientUnits="userSpaceOnUse"><stop offset="0" stop-color="#082b5f"/><stop offset="0.23" stop-color="#082d64"/><stop offset="0.49" stop-color="#093372"/><stop offset="0.77" stop-color="#0b3d89"/><stop offset="1" stop-color="#0d47a1"/></linearGradient></defs><title>NewSD white</title><g id="Layer_2" data-name="Layer 2"><g id="Layer_1-2" data-name="Layer 1"><path class="cls-1" d="M79.62,158.43A79.22,79.22,0,1,1,158.43,78.8a79.31,79.31,0,0,1-78.81,79.63"/><path class="cls-2" d="M78.82,2.77a76.45,76.45,0,1,0,76.84,76.05,76.54,76.54,0,0,0-76.84-76"/><path class="cls-1" d="M59.07,13.5l-1.82-5q-3.41,1.05-6.66,2.42l1.81,5A66.19,66.19,0,0,1,59.07,13.5Z"/><path class="cls-1" d="M79.21,10.49c1.19,0,2.37,0,3.55.09V5.28c-1.3-.06-2.61-.09-3.93-.08-1.06,0-2.11,0-3.16.09v5.29C76.84,10.52,78,10.49,79.21,10.49Z"/><path class="cls-1" d="M37.82,24.36,34.41,20.3c-1.89,1.43-3.7,3-5.43,4.56l3.41,4.07A69.79,69.79,0,0,1,37.82,24.36Z"/><path class="cls-1" d="M21.56,41.83,17,39.18c-1.28,2-2.47,4-3.55,6.14L18,48A68,68,0,0,1,21.56,41.83Z"/><path class="cls-1" d="M140.42,48,145,45.32c-1.09-2.11-2.27-4.15-3.55-6.14l-4.59,2.65A70.43,70.43,0,0,1,140.42,48Z"/><path class="cls-1" d="M106,15.92l1.82-5c-2.17-.91-4.4-1.72-6.67-2.42l-1.81,5A66,66,0,0,1,106,15.92Z"/><path class="cls-1" d="M12.25,63.81,7,62.89c-.52,2.29-.93,4.61-1.23,7l5.22.92A66.5,66.5,0,0,1,12.25,63.81Z"/><path class="cls-1" d="M147.4,70.79l5.22-.92a69.18,69.18,0,0,0-1.22-7l-5.22.92A69.18,69.18,0,0,1,147.4,70.79Z"/><path class="cls-1" d="M126,28.93l3.41-4.06A69.66,69.66,0,0,0,124,20.31l-3.4,4.05A69.64,69.64,0,0,1,126,28.93Z"/><path class="cls-1" d="M32.39,129.5,29,133.56q2.6,2.4,5.42,4.56l3.41-4.06A67.52,67.52,0,0,1,32.39,129.5Z"/><path class="cls-1" d="M120.61,134.06l3.41,4.07q2.82-2.16,5.43-4.56L126,129.5A67.37,67.37,0,0,1,120.61,134.06Z"/><path class="cls-1" d="M136.87,116.59l4.59,2.65c1.28-2,2.46-4,3.55-6.13l-4.59-2.65A70.26,70.26,0,0,1,136.87,116.59Z"/><path class="cls-1" d="M11,87.64l-5.22.92q.45,3.54,1.22,7l5.23-.92A67,67,0,0,1,11,87.64Z"/><path class="cls-1" d="M99.36,144.93l1.81,5c2.27-.7,4.49-1.52,6.66-2.43l-1.81-5A68.55,68.55,0,0,1,99.36,144.93Z"/><path class="cls-1" d="M147.4,87.64a69.68,69.68,0,0,1-1.22,7l5.22.92a70.18,70.18,0,0,0,1.22-7Z"/><path class="cls-1" d="M18,110.46l-4.59,2.65c1.09,2.1,2.27,4.15,3.55,6.13l4.59-2.65A67.8,67.8,0,0,1,18,110.46Z"/><path class="cls-1" d="M52.4,142.51l-1.81,5q3.25,1.37,6.66,2.42l1.82-5A68.73,68.73,0,0,1,52.4,142.51Z"/><path class="cls-1" d="M79.21,147.94c-1.18,0-2.37,0-3.54-.09v5.3c1.3.06,2.61.09,3.93.08,1.06,0,2.11,0,3.16-.1v-5.28C81.58,147.91,80.4,147.94,79.21,147.94Z"/><path class="cls-3" d="M112.94,108.92a9.79,9.79,0,0,0,4.2-8V35.18h0A14.14,14.14,0,0,0,103,49.31V83L74.49,53.08a11.75,11.75,0,0,0-17.12.27Z"/><path class="cls-3" d="M45.48,49.51a9.78,9.78,0,0,0-4.19,8v65.71h0a14.14,14.14,0,0,0,14.13-14.14V75.42l28.52,29.92a11.73,11.73,0,0,0,17.12-.26Z"/><path class="cls-4" d="M225.15,82.46H211.69L189.18,48.3V82.46H175.72V26.82h13.46l22.51,34.47V26.82h13.46Z"/><path class="cls-4" d="M275.76,62.94H245.3c.16,3.31,1,5.68,2.52,7.13a8.12,8.12,0,0,0,5.82,2.16,8,8,0,0,0,5-1.49,7,7,0,0,0,2.6-3.86h14.25a18.63,18.63,0,0,1-3.78,8.3,20.14,20.14,0,0,1-7.4,5.75,25.23,25.23,0,0,1-21.45-.63A19.42,19.42,0,0,1,235,72.47a24.3,24.3,0,0,1-2.83-12,24.57,24.57,0,0,1,2.79-12,19.14,19.14,0,0,1,7.83-7.79,25.8,25.8,0,0,1,23,0,18.86,18.86,0,0,1,7.68,7.52,22.35,22.35,0,0,1,2.71,11.13A18.64,18.64,0,0,1,275.76,62.94ZM260.22,50.78a8.6,8.6,0,0,0-6-2.16,8.83,8.83,0,0,0-6.14,2.2,9.26,9.26,0,0,0-2.75,6.46h17.16C262.59,54.39,261.82,52.23,260.22,50.78Z"/><path class="cls-4" d="M347.39,38.54,336.13,82.46h-15l-8-29.43-8,29.43h-15L278.83,38.54h13.46l5.82,31.65,8.19-31.65h14.32l8.43,31.72,5.82-31.72Z"/><path class="cls-4" d="M390,74.91a15.8,15.8,0,0,1-6.62,5.9A23.26,23.26,0,0,1,372.81,83q-9.37,0-15.43-4.57a16.54,16.54,0,0,1-6.61-12.75H365.1a7.5,7.5,0,0,0,2.24,5,6.87,6.87,0,0,0,4.92,1.81,5.69,5.69,0,0,0,4.09-1.42,4.94,4.94,0,0,0,1.5-3.78,4.89,4.89,0,0,0-1.38-3.54A10.8,10.8,0,0,0,373,61.41c-1.36-.6-3.25-1.33-5.66-2.16a69.41,69.41,0,0,1-8.62-3.51,15.88,15.88,0,0,1-5.75-5,14.58,14.58,0,0,1-2.4-8.7,14.62,14.62,0,0,1,2.52-8.58,16.06,16.06,0,0,1,7-5.55A25.3,25.3,0,0,1,370.29,26q9.29,0,14.76,4.41a16.88,16.88,0,0,1,6.18,12.12H376.67a7.56,7.56,0,0,0-2-4.37,5.93,5.93,0,0,0-4.37-1.61,5.64,5.64,0,0,0-3.82,1.26,4.62,4.62,0,0,0-1.45,3.7,4.71,4.71,0,0,0,1.29,3.34A9.84,9.84,0,0,0,369.58,47q2,.87,5.67,2.21A62.92,62.92,0,0,1,384,52.83,16.76,16.76,0,0,1,389.81,58a14.68,14.68,0,0,1,2.44,8.81A15.41,15.41,0,0,1,390,74.91Z"/><path class="cls-4" d="M446.28,69a24.46,24.46,0,0,1-10.07,9.88,32.15,32.15,0,0,1-15.47,3.54h-21V26.82h21a32.69,32.69,0,0,1,15.51,3.46,24.14,24.14,0,0,1,10,9.76,29.26,29.26,0,0,1,3.51,14.48A29.44,29.44,0,0,1,446.28,69ZM431.8,66.25q4.36-4.17,4.37-11.73c0-5-1.46-8.94-4.37-11.73s-7-4.17-12.24-4.17h-6.37v31.8h6.37Q427.44,70.42,431.8,66.25Z"/><path class="cls-4" d="M192.3,128.36a7.62,7.62,0,0,1-3.18,3,11.07,11.07,0,0,1-5.22,1.13,13.1,13.1,0,0,1-5.39-1.07,9.37,9.37,0,0,1-3.8-3,8.43,8.43,0,0,1-1.63-4.42h5.1a5.24,5.24,0,0,0,1.65,3.3,5.35,5.35,0,0,0,3.86,1.37,4.58,4.58,0,0,0,3.37-1.17,4,4,0,0,0,1.19-3,3.89,3.89,0,0,0-.88-2.61,6,6,0,0,0-2.17-1.61c-.87-.39-2-.84-3.55-1.34a30.63,30.63,0,0,1-4.49-1.75,8.26,8.26,0,0,1-2.95-2.55,7.31,7.31,0,0,1-1.21-4.39,7.49,7.49,0,0,1,1.17-4.18,7.59,7.59,0,0,1,3.34-2.77,12,12,0,0,1,5-1,11,11,0,0,1,7.17,2.18,8.16,8.16,0,0,1,3,5.68h-5.14a5,5,0,0,0-1.57-2.86,4.88,4.88,0,0,0-3.49-1.19,4.81,4.81,0,0,0-3.21,1,3.62,3.62,0,0,0-1.21,2.94,3.67,3.67,0,0,0,.83,2.49,5.94,5.94,0,0,0,2.11,1.55c.85.37,2,.81,3.49,1.31a31.06,31.06,0,0,1,4.57,1.78,8.26,8.26,0,0,1,3,2.61,7.55,7.55,0,0,1,1.23,4.51A8,8,0,0,1,192.3,128.36Z"/><path class="cls-4" d="M209.68,128.05v4.13h-2.93a7.88,7.88,0,0,1-5.57-1.77c-1.27-1.18-1.9-3.16-1.9-5.91V113.22H196v-4.06h3.3v-5.72h4.8v5.72h5.56v4.06h-5.56v11.36a3.9,3.9,0,0,0,.73,2.72,3.52,3.52,0,0,0,2.57.75Z"/><path class="cls-4" d="M228.73,110.42a8.31,8.31,0,0,1,3.13,4.09v-5.35h4.76v23h-4.76v-5.34a8.31,8.31,0,0,1-3.13,4.09,9.13,9.13,0,0,1-5.35,1.55,10.31,10.31,0,0,1-5.37-1.42,9.76,9.76,0,0,1-3.69-4.1,15.41,15.41,0,0,1,0-12.57,9.7,9.7,0,0,1,3.69-4.1,10.31,10.31,0,0,1,5.37-1.42A9.13,9.13,0,0,1,228.73,110.42Zm-9,4.66a9.13,9.13,0,0,0,0,11.15,6.62,6.62,0,0,0,5.07,2,7,7,0,0,0,3.6-.94,6.69,6.69,0,0,0,2.5-2.66,8.25,8.25,0,0,0,.92-4,8.33,8.33,0,0,0-.92-4,6.72,6.72,0,0,0-2.5-2.67,6.91,6.91,0,0,0-3.6-.94A6.62,6.62,0,0,0,219.77,115.08Z"/><path class="cls-4" d="M260.92,110.29a9.7,9.7,0,0,1,3.69,4.1,15.41,15.41,0,0,1,0,12.57,9.76,9.76,0,0,1-3.69,4.1,10.31,10.31,0,0,1-5.37,1.42,9.13,9.13,0,0,1-5.35-1.55,8,8,0,0,1-3.09-4.09v5.34h-4.76V101.27h4.76v13.24a8,8,0,0,1,3.09-4.09,9.13,9.13,0,0,1,5.35-1.55A10.31,10.31,0,0,1,260.92,110.29ZM250.49,114a6.65,6.65,0,0,0-2.5,2.67,8.33,8.33,0,0,0-.92,4,8.25,8.25,0,0,0,.92,4,6.62,6.62,0,0,0,2.5,2.66,7,7,0,0,0,3.6.94,6.7,6.7,0,0,0,5.09-2,9,9,0,0,0,0-11.13,6.64,6.64,0,0,0-5.09-2A6.91,6.91,0,0,0,250.49,114Z"/><path class="cls-4" d="M275.31,101.27v30.91h-4.76V101.27Z"/><path class="cls-4" d="M302.3,121.61H284.58a7.26,7.26,0,0,0,2,5.27,6.41,6.41,0,0,0,4.55,1.71,6.6,6.6,0,0,0,4-1.21,5,5,0,0,0,2-3.22h5.09a9.75,9.75,0,0,1-5.72,7.25,12.46,12.46,0,0,1-5.22,1.07,12.07,12.07,0,0,1-5.91-1.42,10.07,10.07,0,0,1-4-4.1,14.17,14.17,0,0,1,0-12.57,10,10,0,0,1,4-4.1,13.09,13.09,0,0,1,11.82,0,9.8,9.8,0,0,1,3.89,3.85,12,12,0,0,1,1.19,7.49Zm-5.41-6a5.39,5.39,0,0,0-2.34-2.25,7.21,7.21,0,0,0-3.24-.74,6.69,6.69,0,0,0-4.68,1.72,7,7,0,0,0-2.05,5h13.08A7.15,7.15,0,0,0,296.89,115.66Z"/><path class="cls-4" d="M324.69,111.23a10.17,10.17,0,0,1,3.63,6.42h-5.05a5.43,5.43,0,0,0-2-3.41,6.43,6.43,0,0,0-4-1.23,6.09,6.09,0,0,0-4.6,1.94,9.84,9.84,0,0,0,0,11.43,6,6,0,0,0,4.6,2,6.37,6.37,0,0,0,4-1.25,5.53,5.53,0,0,0,2-3.43h5.05a10.27,10.27,0,0,1-3.63,6.44,11.39,11.39,0,0,1-7.4,2.38,12.13,12.13,0,0,1-5.91-1.42,10.2,10.2,0,0,1-4-4.1,14.26,14.26,0,0,1,0-12.57,10.14,10.14,0,0,1,4-4.1,12.13,12.13,0,0,1,5.91-1.42A11.43,11.43,0,0,1,324.69,111.23Z"/><path class="cls-4" d="M349.46,110.29a10.19,10.19,0,0,1,4.18,4.1,13.92,13.92,0,0,1,0,12.57,10.25,10.25,0,0,1-4.18,4.1,13.41,13.41,0,0,1-12,0,10.36,10.36,0,0,1-4.18-4.12,12.62,12.62,0,0,1-1.52-6.29,12.48,12.48,0,0,1,1.52-6.26,10.37,10.37,0,0,1,4.18-4.1,13.41,13.41,0,0,1,12,0Zm-9.4,3.55a6.16,6.16,0,0,0-2.48,2.57,10.08,10.08,0,0,0,0,8.5,6,6,0,0,0,2.48,2.55,7.24,7.24,0,0,0,6.77,0,6.13,6.13,0,0,0,2.49-2.55,10.08,10.08,0,0,0,0-8.5,6.24,6.24,0,0,0-2.49-2.57,7.32,7.32,0,0,0-6.77,0Z"/><path class="cls-4" d="M359.91,100.48a3.06,3.06,0,0,1,2.21-.8,3.14,3.14,0,0,1,2.23.8,2.56,2.56,0,0,1,.86,2,2.45,2.45,0,0,1-.86,2,3.21,3.21,0,0,1-2.23.76,3.12,3.12,0,0,1-2.21-.76,2.5,2.5,0,0,1-.84-2A2.61,2.61,0,0,1,359.91,100.48Zm4.59,8.68v23h-4.76v-23Z"/><path class="cls-4" d="M389.57,111.38Q392,114,392,118.77v13.41h-4.76V119.27a6.71,6.71,0,0,0-1.59-4.78,5.66,5.66,0,0,0-4.34-1.69,6,6,0,0,0-4.56,1.82,7.48,7.48,0,0,0-1.71,5.32v12.24h-4.76v-23H375v5.06a7.7,7.7,0,0,1,3.09-4,8.93,8.93,0,0,1,5-1.42A8.39,8.39,0,0,1,389.57,111.38Z"/></g></g></svg>