<svg width="16" height="18" viewBox="0 0 16 18" fill="none" xmlns="http://www.w3.org/2000/svg">
<path d="M15.6714 8.08773V9.40859C15.6724 9.76898 15.5454 10.118 15.3132 10.3936C15.1993 10.5168 15.0606 10.6143 14.9063 10.6799C14.7519 10.7455 14.5854 10.7777 14.4177 10.7742H6.96268L10.0969 13.8861C10.2281 14.0091 10.3319 14.1584 10.4013 14.3243C10.4708 14.4902 10.5044 14.6689 10.4999 14.8487C10.503 15.0283 10.4687 15.2066 10.3994 15.3723C10.33 15.538 10.227 15.6875 10.0969 15.8114L9.29098 16.6173C9.16712 16.7474 9.01761 16.8504 8.85191 16.9198C8.68621 16.9892 8.50792 17.0234 8.32832 17.0203C8.14569 17.0213 7.96467 16.9861 7.79564 16.917C7.6266 16.8478 7.47288 16.746 7.34327 16.6173L0.403164 9.7444C0.27306 9.62054 0.170071 9.47104 0.100708 9.30534C0.0313453 9.13964 -0.00288217 8.96134 0.000189921 8.78174C-0.000748322 8.59911 0.0343638 8.41809 0.103514 8.24906C0.172664 8.08002 0.274493 7.9263 0.403164 7.79669L7.34327 0.856586C7.47135 0.725854 7.62479 0.622674 7.79418 0.553378C7.96357 0.484082 8.14533 0.450132 8.32832 0.453612C8.50754 0.45316 8.68505 0.488581 8.85038 0.557789C9.01571 0.626996 9.16552 0.72859 9.29098 0.856586L10.0969 1.64015C10.2339 1.77761 10.3406 1.94228 10.41 2.12352C10.4794 2.30476 10.51 2.49854 10.4999 2.69236C10.503 2.87196 10.4687 3.05025 10.3994 3.21595C10.33 3.38165 10.227 3.53116 10.0969 3.65502L6.96268 6.72209H14.4849C14.6549 6.71678 14.824 6.75031 14.9792 6.82014C15.1343 6.88997 15.2715 6.99425 15.3804 7.12507C15.5887 7.40117 15.6919 7.74245 15.6714 8.08773Z" fill="#758696"/>
</svg>
