<svg width="14" height="19" viewBox="0 0 14 19" fill="none" xmlns="http://www.w3.org/2000/svg">
<path d="M11.5967 8.91333e-09H1.52235C1.12244 -4.32354e-05 0.738584 0.15727 0.453723 0.437941C0.168863 0.718612 0.00588091 1.1001 0 1.49996L0 3.53722H1.00743V1.49996C1.00737 1.43335 1.02081 1.36742 1.04695 1.30616C1.07309 1.2449 1.11138 1.18957 1.15951 1.14353C1.20765 1.09749 1.26462 1.06169 1.32698 1.0383C1.38935 1.01491 1.45581 1.00441 1.52235 1.00743H5.99983V17.1264H4.02974V18.1338H9.06691V17.1264H7.05204V1.00743H11.5295C11.5996 0.997785 11.6709 1.00335 11.7387 1.02374C11.8064 1.04413 11.869 1.07888 11.9221 1.12561C11.9752 1.17235 12.0176 1.22997 12.0465 1.29457C12.0753 1.35917 12.0899 1.42922 12.0892 1.49996V3.53722H13.0967V1.49996C13.0967 1.30298 13.0579 1.10793 12.9825 0.925949C12.9071 0.743966 12.7966 0.578612 12.6573 0.439328C12.518 0.300044 12.3527 0.189558 12.1707 0.114178C11.9887 0.0387976 11.7937 8.91333e-09 11.5967 8.91333e-09Z" fill="#758696"/>
</svg>
