<svg width="14" height="22" viewBox="0 0 14 22" fill="none" xmlns="http://www.w3.org/2000/svg">
<path d="M13.4658 6.83434H11.8835V3.6687H10.8244V6.83434H9.24558C8.89257 6.83434 8.71606 7.01084 8.71606 7.36386V14.7497C8.71606 15.1028 8.89257 15.2793 9.24558 15.2793H10.8288V18.4449H11.8879V15.274H13.4703C13.8233 15.274 13.9998 15.0975 13.9998 14.7445V7.36121C13.9957 7.00996 13.8177 6.83434 13.4658 6.83434ZM12.9363 14.2193H9.77334V7.88896H12.9381L12.9363 14.2193Z" fill="#6E7793"/>
<path d="M5.02633 3.66866H3.44307V0.503906H2.38845V3.66866H0.807838C0.454826 3.66866 0.27832 3.84517 0.27832 4.19818V17.9118C0.27832 18.2648 0.454826 18.4413 0.807838 18.4413H2.38845V21.6061H3.44749V18.4396H5.02633C5.37934 18.4396 5.55585 18.2631 5.55585 17.91V4.19641C5.5532 3.84517 5.37758 3.66866 5.02633 3.66866ZM4.49681 17.3841H1.33736V4.72417H4.49858L4.49681 17.3841Z" fill="#6E7793"/>
</svg>
