<svg width="20" height="22" viewBox="0 0 20 22" fill="none" xmlns="http://www.w3.org/2000/svg">
<path d="M9.89525 0.520752L0 8.22203L2.23874 9.90109L9.58182 15.677L9.89525 15.9009L17.6189 9.90109L19.2756 8.60262L19.7905 8.22203L9.89525 0.520752ZM16.9921 9.09514L9.89525 14.6248L2.77604 9.09514L1.63428 8.22203L9.89525 1.79684L18.1338 8.22203L16.9921 9.09514Z" fill="#758696"/>
<path d="M9.89493 17.2889L2.84288 11.7368L1.83545 12.3189L9.89493 18.7889L17.9544 12.2517L16.947 11.7368L9.89493 17.2889Z" fill="#758696"/>
<path d="M9.89493 20.3112L2.84288 14.7592L1.83545 15.3412L9.89493 21.8112L17.9544 15.2741L16.947 14.7592L9.89493 20.3112Z" fill="#758696"/>
</svg>
