<svg width="24" height="23" viewBox="0 0 24 23" fill="none" xmlns="http://www.w3.org/2000/svg">
<path d="M20.6638 14.2523L18.6713 5.94651C19.1076 5.7561 19.4794 5.4433 19.7416 5.04597C20.0039 4.64864 20.1453 4.18382 20.1489 3.70777C20.182 3.35707 20.1415 3.00332 20.0299 2.66918C19.9184 2.33504 19.7384 2.02787 19.5013 1.76735C19.2642 1.50682 18.9753 1.29868 18.6531 1.15626C18.3309 1.01384 17.9825 0.940272 17.6303 0.940272C17.278 0.940272 16.9296 1.01384 16.6075 1.15626C16.2853 1.29868 15.9964 1.50682 15.7593 1.76735C15.5222 2.02787 15.3421 2.33504 15.2306 2.66918C15.1191 3.00332 15.0786 3.35707 15.1117 3.70777C15.1187 4.07456 15.2107 4.43472 15.3803 4.75998L11.1939 7.84945C10.7465 7.44108 10.1653 7.2102 9.5596 7.20021C9.29113 7.20504 9.02572 7.25812 8.77604 7.35692L7.18653 4.62566C7.45717 4.39698 7.67528 4.11259 7.82596 3.7919C7.97664 3.47122 8.05635 3.1218 8.05964 2.7675C8.09274 2.4168 8.05224 2.06305 7.94072 1.72891C7.82921 1.39477 7.64913 1.0876 7.41204 0.827075C7.17495 0.56655 6.88606 0.358411 6.56388 0.215989C6.24169 0.0735668 5.89332 0 5.54106 0C5.1888 0 4.84042 0.0735668 4.51824 0.215989C4.19605 0.358411 3.90717 0.56655 3.67007 0.827075C3.43298 1.0876 3.25291 1.39477 3.14139 1.72891C3.02987 2.06305 2.98937 2.4168 3.02247 2.7675C3.04652 3.25334 3.20891 3.72219 3.49052 4.11883C3.77213 4.51546 4.16123 4.82336 4.61198 5.00624L2.37323 17.2969C1.79729 17.3327 1.25087 17.5642 0.824609 17.9531C0.398348 18.3421 0.11787 18.8651 0.0297058 19.4354C-0.0584589 20.0056 0.0509881 20.5889 0.33989 21.0884C0.628792 21.5879 1.07979 21.9737 1.61805 22.1817C2.15632 22.3896 2.74951 22.4073 3.29922 22.2318C3.84893 22.0563 4.32212 21.6981 4.64028 21.2167C4.95845 20.7353 5.10247 20.1596 5.04846 19.5851C4.99445 19.0106 4.74565 18.4718 4.34333 18.0581L8.57456 12.0135C8.89305 12.1489 9.23593 12.2174 9.58199 12.215C9.91638 12.2151 10.2474 12.1478 10.5551 12.017C10.8628 11.8862 11.141 11.6947 11.373 11.4538L18.3131 15.9313C18.2063 16.2184 18.1458 16.5207 18.134 16.8268C18.1428 17.3252 18.2986 17.8098 18.5819 18.2199C18.8652 18.63 19.2633 18.9472 19.7263 19.1319C20.1893 19.3165 20.6964 19.3602 21.1842 19.2576C21.6719 19.155 22.1185 18.9106 22.4678 18.5551C22.8172 18.1996 23.0537 17.7488 23.1477 17.2593C23.2418 16.7699 23.1891 16.2635 22.9964 15.8039C22.8037 15.3442 22.4795 14.9517 22.0645 14.6757C21.6495 14.3996 21.1622 14.2523 20.6638 14.2523ZM17.6415 2.16304C17.9426 2.16304 18.2369 2.25232 18.4872 2.4196C18.7376 2.58688 18.9327 2.82463 19.0479 3.10281C19.1632 3.38098 19.1933 3.68707 19.1346 3.98238C19.0758 4.27768 18.9308 4.54894 18.7179 4.76184C18.505 4.97475 18.2338 5.11974 17.9385 5.17848C17.6432 5.23722 17.3371 5.20707 17.0589 5.09185C16.7807 4.97663 16.543 4.7815 16.3757 4.53115C16.2084 4.28081 16.1191 3.98648 16.1191 3.68538C16.1191 3.28163 16.2795 2.89442 16.565 2.60892C16.8505 2.32343 17.2377 2.16304 17.6415 2.16304ZM7.92532 7.84945C7.66886 8.06921 7.45988 8.33895 7.31116 8.64218C7.16244 8.94541 7.07709 9.27578 7.06033 9.6131C7.04357 9.95043 7.09575 10.2876 7.21367 10.6041C7.3316 10.9206 7.51281 11.2097 7.74622 11.4538L3.51499 17.4984L5.75374 5.18534C5.99044 5.17513 6.22433 5.12987 6.44775 5.05102L7.92532 7.84945ZM4.0299 2.67795C4.02546 2.37594 4.11096 2.07944 4.27551 1.82617C4.44007 1.57289 4.67624 1.37429 4.95399 1.25562C5.23175 1.13696 5.53852 1.1036 5.83528 1.15979C6.13205 1.21598 6.4054 1.35917 6.62054 1.57116C6.83569 1.78314 6.98292 2.05434 7.0435 2.35024C7.10408 2.64614 7.07527 2.95337 6.96073 3.23285C6.84619 3.51233 6.65111 3.75142 6.4003 3.91971C6.14949 4.088 5.85429 4.17787 5.55225 4.17791C5.3534 4.18088 5.15594 4.14427 4.97136 4.07022C4.78679 3.99617 4.61878 3.88615 4.47712 3.74657C4.33545 3.60699 4.22296 3.44063 4.14619 3.25718C4.06941 3.07372 4.02988 2.87682 4.0299 2.67795ZM2.52995 21.3043C2.33109 21.3073 2.13364 21.2707 1.94906 21.1966C1.76448 21.1226 1.59648 21.0125 1.45481 20.873C1.31315 20.7334 1.20066 20.567 1.12388 20.3836C1.04711 20.2001 1.00758 20.0032 1.0076 19.8043C0.981519 19.5905 1.00114 19.3735 1.06516 19.1677C1.12919 18.962 1.23616 18.7722 1.379 18.6109C1.52185 18.4495 1.69731 18.3204 1.89379 18.2319C2.09026 18.1435 2.30328 18.0977 2.51875 18.0977C2.73423 18.0977 2.94724 18.1435 3.14372 18.2319C3.3402 18.3204 3.51566 18.4495 3.6585 18.6109C3.80135 18.7722 3.90832 18.962 3.97234 19.1677C4.03637 19.3735 4.05599 19.5905 4.0299 19.8043C4.0299 20.2022 3.87187 20.5837 3.59058 20.865C3.30928 21.1463 2.92776 21.3043 2.52995 21.3043ZM9.58199 11.3419C9.2893 11.3241 9.00798 11.2222 8.77184 11.0483C8.5357 10.8745 8.35479 10.6362 8.25085 10.362C8.14691 10.0878 8.12436 9.78942 8.18593 9.50273C8.24749 9.21604 8.39054 8.95323 8.59788 8.74588C8.80522 8.53854 9.06803 8.39549 9.35472 8.33393C9.64141 8.27237 9.93979 8.29491 10.214 8.39885C10.4882 8.50279 10.7265 8.6837 10.9003 8.91984C11.0742 9.15599 11.1761 9.43731 11.1939 9.72999C11.2107 9.94595 11.1805 10.163 11.1055 10.3662C11.0304 10.5694 10.9123 10.7539 10.7591 10.9071C10.6059 11.0603 10.4214 11.1784 10.2182 11.2535C10.015 11.3286 9.79795 11.3587 9.58199 11.3419ZM11.8207 10.715C11.9383 10.4389 11.9993 10.142 11.9998 9.84193C12.0008 9.46964 11.9166 9.10206 11.7536 8.76733L15.9848 5.54354C16.4356 5.96075 17.0272 6.19259 17.6415 6.19278L19.5444 14.4985C19.2604 14.6303 19.0025 14.8123 18.7832 15.0358L11.8207 10.715ZM20.6638 18.282C20.3608 18.2864 20.0634 18.2003 19.8097 18.0348C19.5559 17.8692 19.3574 17.6317 19.2394 17.3526C19.1214 17.0736 19.0894 16.7656 19.1474 16.4683C19.2054 16.1709 19.3508 15.8976 19.5651 15.6833C19.7793 15.4691 20.0526 15.3237 20.35 15.2656C20.6474 15.2076 20.9553 15.2396 21.2344 15.3576C21.5134 15.4756 21.751 15.6742 21.9165 15.928C22.0821 16.1817 22.1682 16.4791 22.1637 16.782C22.1637 17.1798 22.0057 17.5614 21.7244 17.8427C21.4431 18.124 21.0616 18.282 20.6638 18.282Z" fill="#758696"/>
</svg>
