<svg width="20" height="23" viewBox="0 0 20 23" fill="none" xmlns="http://www.w3.org/2000/svg">
<path d="M15.4091 3.59375H14.5V1.79688H15.4091C15.9104 1.79688 16.3182 1.39384 16.3182 0.898438V0H18.1364V0.898438C18.1364 1.39384 18.5443 1.79688 19.0455 1.79688H19.9545V3.59375H19.0455C18.5443 3.59375 18.1364 3.99678 18.1364 4.49219V5.39062H16.3182V4.49219C16.3182 3.99678 15.9104 3.59375 15.4091 3.59375ZM19.1818 21.6523C19.1818 22.3966 18.5714 23 17.8182 23C17.803 23 17.7879 22.9993 17.7727 22.9989V23H2V22.9989C1.98494 22.9993 1.96989 23 1.95455 23C1.20142 23 0.590909 22.3966 0.590909 21.6523C0.590909 20.908 1.20142 20.3047 1.95455 20.3047C2.47912 20.3047 2.93423 20.5975 3.16236 21.0265C3.75213 20.8211 4.19574 20.435 4.50398 19.8609C4.87543 19.1696 4.90937 18.4477 4.90952 18.4407L4.91051 18.3942C3.76989 17.7286 2.77102 16.8409 1.96378 15.7655C0.678977 14.0538 0 12.0195 0 9.88281C0 7.24295 1.0402 4.76116 2.92898 2.89465C4.81776 1.02787 7.32884 0 10 0C10.9193 0 11.8195 0.121851 12.6818 0.35741V2.24343C11.8413 1.95438 10.9389 1.79688 10 1.79688C5.48849 1.79688 1.81818 5.42418 1.81818 9.88281C1.81818 13.3922 4.07415 16.4703 7.43864 17.5645H12.5625C15.9303 16.4703 18.1818 13.4029 18.1818 9.88281C18.1818 8.93805 18.0166 8.03105 17.7138 7.1875H19.6253C19.872 8.05351 20 8.9584 20 9.88281C20 12.0379 19.3104 14.0861 18.0057 15.806C17.1651 16.9142 16.0866 17.839 14.869 18.5133C14.8884 18.7237 14.9702 19.3288 15.2945 19.9075C15.6018 20.456 16.0368 20.8269 16.6105 21.0268C16.8385 20.5975 17.2937 20.3047 17.8182 20.3047C18.5714 20.3047 19.1818 20.908 19.1818 21.6523ZM13.973 21.2031C13.8534 21.0354 13.7507 20.8671 13.6631 20.7035C13.4048 20.2231 13.2547 19.7482 13.1673 19.3613H6.60554C6.51818 19.7482 6.3679 20.2231 6.1098 20.7035C6.02202 20.8671 5.91946 21.0354 5.79972 21.2031H13.973ZM10.0455 3.45898C6.48636 3.45898 3.59091 6.32051 3.59091 9.83789H5.40909C5.40909 7.31132 7.48906 5.25586 10.0455 5.25586V3.45898ZM4.25668 12.6618C4.78452 13.7172 5.59702 14.6075 6.60582 15.2364L7.57599 13.7166C6.85014 13.2643 6.26591 12.6242 5.88636 11.8656L4.25668 12.6618Z" fill="#6E7793"/>
</svg>
