<svg width="26" height="24" viewBox="0 0 26 24" fill="none" xmlns="http://www.w3.org/2000/svg">
<path d="M22.9162 11.4648C22.3425 11.4699 21.7883 11.6734 21.3476 12.0406C20.9069 12.4079 20.6069 12.9163 20.4984 13.4796H13.3344V7.32309H15.3492L12.8418 4.30078L10.3121 7.32309H12.3269V13.3677H5.18534C5.0546 12.8251 4.74497 12.3422 4.30635 11.997C3.86774 11.6518 3.32567 11.4643 2.7675 11.4648C2.4168 11.4317 2.06305 11.4722 1.72891 11.5837C1.39477 11.6952 1.0876 11.8753 0.827075 12.1124C0.56655 12.3495 0.358411 12.6383 0.215989 12.9605C0.0735668 13.2827 0 13.6311 0 13.9833C0 14.3356 0.0735668 14.684 0.215989 15.0062C0.358411 15.3284 0.56655 15.6172 0.827075 15.8543C1.0876 16.0914 1.39477 16.2715 1.72891 16.383C2.06305 16.4945 2.4168 16.535 2.7675 16.5019C3.34115 16.4968 3.89535 16.2933 4.33606 15.9261C4.77676 15.5588 5.07683 15.0504 5.18534 14.4871H12.3269V16.5019H10.3121L12.8418 19.4123L15.3492 16.39H13.3344V14.3751H20.4984C20.6154 14.9843 20.9561 15.5276 21.4534 15.8984C21.9507 16.2691 22.5687 16.4405 23.186 16.3788C23.8032 16.3171 24.375 16.0267 24.7891 15.5648C25.2031 15.1029 25.4295 14.5029 25.4236 13.8826C25.3949 13.2351 25.1188 12.6233 24.6523 12.1734C24.1857 11.7235 23.5643 11.4699 22.9162 11.4648ZM2.7675 15.4945C2.46455 15.4989 2.16716 15.4128 1.91341 15.2473C1.65966 15.0817 1.46109 14.8442 1.3431 14.5651C1.22511 14.2861 1.19308 13.9781 1.25111 13.6808C1.30913 13.3834 1.45457 13.1101 1.66881 12.8959C1.88306 12.6816 2.15635 12.5362 2.45373 12.4781C2.75111 12.4201 3.05903 12.4522 3.3381 12.5701C3.61717 12.6881 3.85468 12.8867 4.02024 13.1405C4.1858 13.3942 4.27188 13.6916 4.26746 13.9945C4.23916 14.3726 4.06873 14.726 3.79044 14.9835C3.51215 15.241 3.14666 15.3836 2.7675 15.3826V15.4945ZM22.9162 15.4945C22.6132 15.4989 22.3159 15.4128 22.0621 15.2473C21.8084 15.0817 21.6098 14.8442 21.4918 14.5651C21.3738 14.2861 21.3418 13.9781 21.3998 13.6808C21.4578 13.3834 21.6033 13.1101 21.8175 12.8959C22.0317 12.6816 22.305 12.5362 22.6024 12.4781C22.8998 12.4201 23.2077 12.4522 23.4868 12.5701C23.7659 12.6881 24.0034 12.8867 24.1689 13.1405C24.3345 13.3942 24.4206 13.6916 24.4162 13.9945C24.3879 14.3726 24.2174 14.726 23.9391 14.9835C23.6608 15.241 23.2954 15.3836 22.9162 15.3826V15.4945Z" fill="#758696"/>
<path d="M2.76806 5.30773C3.34171 5.30258 3.89591 5.09911 4.33662 4.73185C4.77733 4.3646 5.07739 3.85617 5.1859 3.29286H23.4093V2.28542H5.1859C5.04638 1.69163 4.6952 1.16906 4.19811 0.815567C3.70102 0.462073 3.09213 0.301898 2.48544 0.365037C1.87875 0.428177 1.31589 0.710299 0.902244 1.15858C0.488599 1.60685 0.252544 2.19054 0.238281 2.80033C0.238268 3.1315 0.303858 3.45939 0.431264 3.76507C0.55867 4.07075 0.745368 4.34816 0.980577 4.58129C1.21579 4.81442 1.49485 4.99864 1.80165 5.12333C2.10845 5.24801 2.43691 5.31068 2.76806 5.30773ZM2.76806 1.27799C3.06915 1.27799 3.36348 1.36727 3.61383 1.53455C3.86418 1.70183 4.0593 1.93958 4.17453 2.21776C4.28975 2.49593 4.3199 2.80202 4.26116 3.09733C4.20242 3.39263 4.05743 3.66389 3.84452 3.87679C3.63162 4.0897 3.36036 4.23469 3.06506 4.29343C2.76975 4.35217 2.46366 4.32202 2.18549 4.2068C1.90731 4.09157 1.66955 3.89645 1.50228 3.6461C1.335 3.39575 1.24572 3.10142 1.24572 2.80033C1.2427 2.59958 1.28001 2.40027 1.35545 2.2142C1.43088 2.02814 1.54291 1.85911 1.68487 1.71714C1.82684 1.57518 1.99587 1.46315 2.18193 1.38772C2.368 1.31228 2.56731 1.27497 2.76806 1.27799Z" fill="#758696"/>
<path d="M2.7675 18.405C2.4168 18.3719 2.06305 18.4124 1.72891 18.5239C1.39477 18.6354 1.0876 18.8155 0.827075 19.0526C0.56655 19.2897 0.358411 19.5786 0.215989 19.9008C0.0735668 20.2229 0 20.5713 0 20.9236C0 21.2758 0.0735668 21.6242 0.215989 21.9464C0.358411 22.2686 0.56655 22.5575 0.827075 22.7946C1.0876 23.0317 1.39477 23.2117 1.72891 23.3232C2.06305 23.4348 2.4168 23.4753 2.7675 23.4422C3.34115 23.437 3.89535 23.2336 4.33606 22.8663C4.77676 22.499 5.07683 21.9906 5.18534 21.4273H23.4087V20.4199H5.18534C5.07683 19.8565 4.77676 19.3481 4.33606 18.9809C3.89535 18.6136 3.34115 18.4101 2.7675 18.405ZM2.7675 22.4347C2.56865 22.4377 2.37119 22.4011 2.18661 22.327C2.00204 22.253 1.83403 22.143 1.69237 22.0034C1.5507 21.8638 1.43821 21.6975 1.36143 21.514C1.28466 21.3305 1.24513 21.1336 1.24515 20.9348C1.21907 20.7209 1.23869 20.5039 1.30272 20.2982C1.36674 20.0924 1.47371 19.9026 1.61655 19.7413C1.7594 19.58 1.93486 19.4508 2.13134 19.3624C2.32782 19.2739 2.54083 19.2282 2.7563 19.2282C2.97178 19.2282 3.18479 19.2739 3.38127 19.3624C3.57775 19.4508 3.75321 19.58 3.89606 19.7413C4.0389 19.9026 4.14587 20.0924 4.20989 20.2982C4.27392 20.5039 4.29354 20.7209 4.26746 20.9348C4.26746 21.3326 4.10943 21.7141 3.82813 21.9954C3.54683 22.2767 3.16531 22.4347 2.7675 22.4347Z" fill="#758696"/>
</svg>
