<svg width="14" height="20" viewBox="0 0 14 20" fill="none" xmlns="http://www.w3.org/2000/svg">
<path d="M0.0013902 16.9303C-0.01053 17.3173 0.0543042 17.7028 0.192152 18.0647C0.33 18.4265 0.538133 18.7574 0.804542 19.0384C1.07095 19.3194 1.39036 19.5448 1.74435 19.7017C2.09833 19.8586 2.47988 19.9439 2.86698 19.9526H10.2548C10.64 19.941 11.0192 19.8536 11.3706 19.6954C11.722 19.5372 12.0387 19.3113 12.3028 19.0307C12.5668 18.75 12.773 18.42 12.9094 18.0596C13.0459 17.6992 13.11 17.3154 13.098 16.9303V3.83362H0.0013902V16.9303ZM1.00882 4.84105H12.2025V16.9303C12.2146 17.1832 12.1766 17.436 12.0908 17.6742C12.005 17.9124 11.8731 18.1313 11.7026 18.3185C11.5321 18.5056 11.3263 18.6573 11.0971 18.7649C10.8679 18.8724 10.6197 18.9337 10.3668 18.9451H2.86698C2.61213 18.9365 2.36153 18.8774 2.12973 18.7711C1.89793 18.6649 1.68955 18.5136 1.51667 18.3262C1.3438 18.1387 1.20989 17.9188 1.12271 17.6792C1.03553 17.4395 0.996819 17.185 1.00882 16.9303V4.84105Z" fill="#758696"/>
<path d="M10.0761 1.81871L9.06862 0.811279H4.03145L3.02401 1.81871H0.00170898V2.82615H13.0984V1.81871H10.0761Z" fill="#758696"/>
<path d="M4.03112 6.85559H3.02368V15.9897H4.03112V6.85559Z" fill="#758696"/>
<path d="M7.05333 6.85559H6.0459V15.9897H7.05333V6.85559Z" fill="#758696"/>
<path d="M10.0755 6.85559H9.06812V15.9897H10.0755V6.85559Z" fill="#758696"/>
</svg>
