<svg width="17" height="22" viewBox="0 0 17 22" fill="none" xmlns="http://www.w3.org/2000/svg">
<path d="M14.1041 8.07754H5.14911V4.04781C5.14911 3.24624 5.46753 2.47751 6.03432 1.91071C6.60111 1.34392 7.36985 1.0255 8.17141 1.0255C8.97298 1.0255 9.74171 1.34392 10.3085 1.91071C10.8753 2.47751 11.1937 3.24624 11.1937 4.04781H12.0892C12.0892 2.97905 11.6647 1.95407 10.9089 1.19835C10.1532 0.442627 9.12823 0.0180664 8.05948 0.0180664C6.99072 0.0180664 5.96574 0.442627 5.21002 1.19835C4.4543 1.95407 4.02974 2.97905 4.02974 4.04781V8.07754H2.01487C1.48049 8.07754 0.968003 8.28982 0.590142 8.66769C0.21228 9.04555 0 9.55804 0 10.0924L0 19.1593C0 19.6937 0.21228 20.2062 0.590142 20.5841C0.968003 20.9619 1.48049 21.1742 2.01487 21.1742H14.1041C14.6385 21.1742 15.151 20.9619 15.5288 20.5841C15.9067 20.2062 16.119 19.6937 16.119 19.1593V10.0924C16.119 9.55804 15.9067 9.04555 15.5288 8.66769C15.151 8.28982 14.6385 8.07754 14.1041 8.07754ZM15.1115 19.2713C15.0839 19.5186 14.9656 19.747 14.7796 19.9123C14.5936 20.0777 14.353 20.1683 14.1041 20.1668H2.01487C1.74768 20.1668 1.49144 20.0606 1.30251 19.8717C1.11357 19.6828 1.00743 19.4265 1.00743 19.1593V10.0924C1.00743 9.82522 1.11357 9.56898 1.30251 9.38005C1.49144 9.19112 1.74768 9.08498 2.01487 9.08498H14.1041C14.3713 9.08498 14.6275 9.19112 14.8164 9.38005C15.0054 9.56898 15.1115 9.82522 15.1115 10.0924V19.2713Z" fill="#758696"/>
<path d="M8.05948 14.1218C7.92634 14.1188 7.79397 14.1427 7.67036 14.1923C7.54674 14.2418 7.43446 14.3159 7.3403 14.4101C7.24613 14.5043 7.17204 14.6165 7.12249 14.7402C7.07295 14.8638 7.04898 14.9961 7.05204 15.1293V17.1441C7.04309 17.2878 7.06436 17.4318 7.11449 17.5668C7.16462 17.7017 7.24249 17.8247 7.34308 17.9277C7.43669 18.022 7.54841 18.0964 7.67153 18.1465C7.79464 18.1965 7.92661 18.2211 8.05948 18.2187C8.19261 18.2218 8.32499 18.1978 8.4486 18.1483C8.57221 18.0988 8.68449 18.0247 8.77866 17.9305C8.87283 17.8363 8.94692 17.724 8.99646 17.6004C9.04601 17.4768 9.06998 17.3444 9.06691 17.2113V15.1964C9.06923 15.0636 9.04465 14.9316 8.99463 14.8085C8.94461 14.6854 8.8702 14.5736 8.77588 14.48C8.68644 14.3755 8.57697 14.29 8.45393 14.2284C8.33088 14.1669 8.19676 14.1307 8.05948 14.1218Z" fill="#758696"/>
</svg>
