<svg width="19" height="19" viewBox="0 0 19 19" fill="none" xmlns="http://www.w3.org/2000/svg">
<path d="M18.4912 18.1614L14.954 14.6242C15.594 13.9181 16.1089 13.108 16.4763 12.2287C16.9125 11.1946 17.1334 10.0824 17.1255 8.96013C17.1352 7.83041 16.9143 6.71059 16.4763 5.66918C16.0519 4.62724 15.4196 3.68269 14.6182 2.89314C13.8253 2.09786 12.8832 1.46698 11.8459 1.0367C10.8086 0.606413 9.69654 0.385197 8.57355 0.385743C7.44486 0.386848 6.32714 0.60735 5.28259 1.03498C3.18655 1.9072 1.52062 3.57313 0.648395 5.66918C-0.216132 7.77023 -0.216132 10.1276 0.648395 12.2287C1.08133 13.2661 1.71251 14.2091 2.50655 15.0047C3.29611 15.8062 4.24066 16.4385 5.28259 16.8629C6.32401 17.3009 7.44382 17.5218 8.57355 17.5121C9.69586 17.52 10.808 17.2991 11.8421 16.8629C12.7214 16.4955 13.5315 15.9806 14.2376 15.3406L17.7748 18.8778L18.4912 18.1614ZM11.4615 16.057C9.60073 16.803 7.52397 16.803 5.66318 16.057C4.7525 15.6637 3.9245 15.1016 3.22295 14.4003C2.5035 13.675 1.94643 12.805 1.58867 11.8481C1.20505 10.9297 1.00752 9.94426 1.00752 8.94894C1.00752 7.95362 1.20505 6.96819 1.58867 6.04977C2.35633 4.20738 3.8208 2.74291 5.66318 1.97525C6.58161 1.59164 7.56703 1.39411 8.56235 1.39411C9.55768 1.39411 10.5431 1.59164 11.4615 1.97525C12.3785 2.34679 13.2091 2.90309 13.9018 3.60953C14.6432 4.30122 15.2438 5.12986 15.6704 6.04977C16.4164 7.91056 16.4164 9.98732 15.6704 11.8481C14.8736 13.7487 13.3621 15.2602 11.4615 16.057Z" fill="#758696"/>
<path d="M9.06587 5.42285H8.05844V8.44516H5.03613V9.45259H8.05844V12.4749H9.06587V9.45259H12.0882V8.44516H9.06587V5.42285Z" fill="#758696"/>
</svg>
