<svg width="154" height="31" viewBox="0 0 154 31" fill="none" xmlns="http://www.w3.org/2000/svg">
<path d="M44.175 21.1524H42.9545L36.2495 11.0464L36.3 21.1952H35.0795L35.0134 9.06013H36.2378L42.9428 19.1934L42.8923 9.02515H44.1128L44.175 21.1524Z" fill="white"/>
<path d="M53.0253 19.5937C53.3016 19.3904 53.5346 19.1341 53.7107 18.8398C53.8869 18.5455 54.0027 18.2191 54.0515 17.8796H55.3264C55.1797 18.8425 54.6725 19.7136 53.9077 20.3167C53.0612 20.9653 52.0154 21.2992 50.9497 21.2612C50.1175 21.2835 49.2938 21.0893 48.5593 20.6976C47.8621 20.316 47.2929 19.7374 46.9228 19.034C46.511 18.24 46.3051 17.3552 46.3243 16.4609C46.2971 15.5677 46.4935 14.6818 46.8956 13.8838C47.2579 13.1751 47.8219 12.5894 48.5165 12.2008C49.2512 11.7938 50.0787 11.5836 50.9186 11.5905C51.7511 11.5656 52.5755 11.7599 53.3091 12.1541C53.9623 12.5083 54.5015 13.0407 54.8639 13.6895C55.218 14.3322 55.4026 15.0546 55.4003 15.7884C55.4049 16.0825 55.3841 16.3764 55.3381 16.6669L47.5642 16.7096C47.5548 17.4041 47.7277 18.089 48.0656 18.6958C48.3552 19.1981 48.7865 19.6037 49.3055 19.8619C49.8128 20.1186 50.3735 20.2518 50.9419 20.2506C51.6887 20.2597 52.4188 20.0295 53.0253 19.5937ZM49.2356 12.9587C48.7228 13.2216 48.2964 13.6264 48.0073 14.1248C47.6786 14.7196 47.5073 15.3886 47.5098 16.0683L54.1642 16.0333C54.2263 15.3615 54.0912 14.6861 53.7755 14.0898C53.5013 13.5853 53.0777 13.178 52.5628 12.9237C52.0447 12.6732 51.4766 12.5431 50.9011 12.5431C50.3256 12.5431 49.7576 12.6732 49.2395 12.9237L49.2356 12.9587Z" fill="white"/>
<path d="M62.8748 21.0592L60.2667 17.2266L57.8918 21.0825H56.5663L59.6098 16.2238L56.5002 11.6722L57.9151 11.6605L60.4494 15.3881L62.7815 11.6372H64.107L61.0752 16.3637L64.2508 21.0514L62.8748 21.0592Z" fill="white"/>
<path d="M70.0889 19.9512V21.0202H68.9695C68.2338 21.0836 67.5026 20.8561 66.9327 20.3866C66.4818 19.959 66.2538 19.2335 66.2486 18.2099L66.2214 12.6788H64.791V11.6254H66.2214V9.25049H67.4458V11.6293H70.0306V12.6827H67.4419L67.473 18.2332C67.473 18.8979 67.5974 19.3565 67.8617 19.6014C68.2228 19.8845 68.6807 20.0143 69.1366 19.9629L70.0889 19.9512Z" fill="white"/>
<path d="M72.2967 11.5983L75.6006 19.4344L78.5741 11.5789H79.919L74.4579 25.4436H73.0819L74.9515 20.8842L70.9402 11.6061L72.2967 11.5983Z" fill="white"/>
<path d="M83.3202 16.2315L83.3436 20.9502H81.4001L81.3379 8.78408L85.4736 8.76465C86.8729 8.76465 87.9289 9.09115 88.6415 9.74416C89.0005 10.0975 89.2816 10.5222 89.4663 10.9908C89.6511 11.4595 89.7356 11.9617 89.7143 12.465C89.7424 12.9691 89.661 13.4733 89.4758 13.9429C89.2907 14.4126 89.006 14.8366 88.6415 15.1859C87.9224 15.8505 86.8768 16.1848 85.5125 16.1926L83.3202 16.2315ZM87.6969 12.5039C87.7149 12.215 87.672 11.9256 87.5709 11.6544C87.4698 11.3832 87.3127 11.1362 87.11 10.9297C86.7213 10.5695 86.1033 10.392 85.2559 10.3972H83.2891L83.3125 14.6184H85.2559C86.8962 14.6106 87.7008 13.9032 87.6969 12.5039Z" fill="white"/>
<path d="M93.3603 8.16235L93.4264 20.9154H91.4596L91.3936 8.16235H93.3603Z" fill="white"/>
<path d="M101.772 11.8784C102.372 12.2881 102.828 12.8772 103.074 13.5615V11.3537H105.037L105.087 20.8495H103.12V18.6456C102.883 19.3319 102.434 19.9252 101.838 20.3403C101.182 20.7861 100.403 21.0133 99.6104 20.9894C98.8328 21.0066 98.0658 20.8075 97.3948 20.4142C96.7331 20.0127 96.2003 19.4299 95.8595 18.735C95.4718 17.9239 95.2788 17.0335 95.2959 16.1346C95.2712 15.2414 95.4563 14.3548 95.8362 13.5459C96.1657 12.8455 96.6926 12.2565 97.3521 11.8512C98.0211 11.4563 98.787 11.2558 99.5637 11.2721C100.345 11.2407 101.116 11.4526 101.772 11.8784ZM98.0828 13.8219C97.5332 14.4596 97.2543 15.2866 97.3054 16.1269C97.2551 16.9647 97.5341 17.789 98.0828 18.4241C98.353 18.703 98.6798 18.9208 99.0411 19.0629C99.4025 19.2051 99.7901 19.2682 100.178 19.2481C100.694 19.2578 101.202 19.1232 101.646 18.8595C102.09 18.5958 102.451 18.2134 102.689 17.7555C102.935 17.2397 103.061 16.6748 103.058 16.1033C103.055 15.5317 102.922 14.9683 102.669 14.4555C102.434 13.9981 102.075 13.6167 101.632 13.3555C101.181 13.0942 100.668 12.9599 100.147 12.9668C99.7624 12.9566 99.3801 13.0271 99.0246 13.1737C98.6691 13.3203 98.3483 13.5398 98.0828 13.818V13.8219Z" fill="white"/>
<path d="M112.2 19.0963V20.8027H110.995C110.163 20.8657 109.338 20.6069 108.69 20.0797C108.166 19.5939 107.913 18.7854 107.913 17.6465L107.89 12.9822H106.529V11.3108H107.894V8.95142H109.876V11.3108H112.169V12.9822H109.88L109.903 17.6698C109.863 18.0682 109.973 18.4672 110.21 18.7893C110.51 19.0266 110.891 19.1357 111.271 19.0925L112.2 19.0963Z" fill="white"/>
<path d="M116.803 9.69001C116.631 9.88591 116.502 10.1151 116.423 10.3632C116.344 10.6113 116.317 10.8731 116.344 11.1321V11.272H118.427V12.9589H116.344L116.383 20.7639H114.4L114.362 12.9589H113.071V11.2681H114.365V10.961C114.365 9.79496 114.696 8.92817 115.372 8.34124C116.048 7.75431 117.059 7.49778 118.416 7.56385V9.28577C117.65 9.28188 117.113 9.40626 116.803 9.69001Z" fill="white"/>
<path d="M126.843 11.6957C127.572 12.076 128.174 12.661 128.576 13.3788C129.008 14.1694 129.226 15.0589 129.21 15.9597C129.235 16.8655 129.027 17.7627 128.603 18.5639C128.208 19.2842 127.613 19.8743 126.889 20.2625C126.125 20.6636 125.273 20.8693 124.409 20.8611C123.549 20.8794 122.698 20.6816 121.933 20.2859C121.205 19.9021 120.603 19.3164 120.2 18.5989C119.764 17.8066 119.543 16.9142 119.558 16.0102C119.533 15.108 119.746 14.2151 120.176 13.4215C120.57 12.7004 121.166 12.1101 121.891 11.7229C122.651 11.3209 123.499 11.1152 124.359 11.1243C125.221 11.1071 126.074 11.3034 126.843 11.6957ZM122.975 13.1805C122.537 13.4273 122.181 13.7978 121.953 14.2455C121.678 14.7881 121.545 15.3909 121.564 15.9986C121.544 16.6075 121.678 17.2117 121.953 17.7555C122.186 18.1977 122.544 18.5614 122.983 18.801C123.414 19.0279 123.895 19.1429 124.382 19.1353C124.868 19.14 125.347 19.0196 125.774 18.7855C126.211 18.5408 126.566 18.1731 126.796 17.7282C127.073 17.1838 127.206 16.5779 127.185 15.9675C127.203 15.3624 127.069 14.7625 126.796 14.2222C126.565 13.7763 126.206 13.4095 125.766 13.1689C125.341 12.9401 124.865 12.8224 124.382 12.8268C123.891 12.8246 123.407 12.9462 122.975 13.1805Z" fill="white"/>
<path d="M134.426 11.5792C135.05 11.2083 135.764 11.0173 136.49 11.0272V13.165H135.903C135.159 13.1326 134.428 13.3577 133.831 13.8025C133.313 14.2249 133.054 14.9181 133.054 15.882L133.077 20.6902H131.114L131.063 11.1944H133.03V13.0562C133.347 12.4426 133.831 11.9307 134.426 11.5792Z" fill="white"/>
<path d="M152.531 12.0142C153.208 12.7217 153.546 13.7362 153.554 15.0577L153.581 20.6005H151.618L151.591 15.2754C151.632 14.5786 151.407 13.8923 150.961 13.3552C150.741 13.1263 150.475 12.9476 150.18 12.8315C149.884 12.7154 149.567 12.6647 149.251 12.6828C148.91 12.6687 148.571 12.7276 148.255 12.8557C147.939 12.9837 147.654 13.1779 147.42 13.4252C146.93 14.0297 146.691 14.799 146.751 15.5747L146.775 20.6277H144.812L144.785 15.3026C144.825 14.6059 144.6 13.9199 144.155 13.3824C143.935 13.1535 143.669 12.9748 143.374 12.8587C143.078 12.7426 142.761 12.6919 142.445 12.71C142.104 12.6959 141.765 12.7548 141.449 12.8829C141.133 13.0109 140.848 13.2051 140.614 13.4524C140.119 14.0576 139.874 14.8296 139.93 15.6097L139.957 20.6627H137.994L137.944 11.1669H139.907V13.1492C140.114 12.4993 140.536 11.9389 141.104 11.5595C141.693 11.1793 142.381 10.9831 143.082 10.9959C143.812 10.9756 144.532 11.1761 145.146 11.5711C145.743 11.9782 146.191 12.5692 146.421 13.2542C146.671 12.5689 147.133 11.9809 147.739 11.575C148.351 11.1682 149.071 10.9543 149.807 10.9609C150.31 10.932 150.813 11.0111 151.283 11.1928C151.753 11.3744 152.178 11.6545 152.531 12.0142Z" fill="white"/>
<path d="M15.5476 30.9321C12.4887 30.9482 9.49377 30.0569 6.94148 28.3709C4.38918 26.6849 2.39416 24.2799 1.20869 21.46C0.0232235 18.6402 -0.299447 15.5321 0.281483 12.5289C0.862412 9.52568 2.32085 6.76216 4.47237 4.58781C6.62389 2.41345 9.37187 0.925927 12.3688 0.31333C15.3657 -0.299267 18.477 -0.00941955 21.3092 1.14622C24.1414 2.30186 26.5673 4.27138 28.2802 6.80574C29.993 9.3401 30.9159 12.3255 30.9321 15.3843C30.9486 19.4847 29.3383 23.4242 26.4542 26.3389C23.5702 29.2535 19.6479 30.9054 15.5476 30.9321Z" fill="#FAB416"/>
<path d="M15.388 0.540154C12.436 0.555569 9.55483 1.446 7.10889 3.09885C4.66295 4.75171 2.76207 7.09274 1.64661 9.82592C0.531151 12.5591 0.25122 15.5617 0.842216 18.454C1.43321 21.3462 2.86859 23.9983 4.96684 26.0748C7.06509 28.1513 9.73198 29.559 12.6303 30.1198C15.5285 30.6807 18.528 30.3695 21.2494 29.2256C23.9709 28.0818 26.292 26.1566 27.9192 23.6936C29.5465 21.2305 30.4069 18.3403 30.3916 15.3883C30.3659 11.4313 28.7719 7.64599 25.9593 4.86252C23.1467 2.07905 19.345 0.524633 15.388 0.540154Z" fill="url(#paint0_linear)"/>
<path d="M24.5417 10.1448L25.1869 20.2042L22.0774 16.6049L24.5417 10.1448Z" fill="#EDA420"/>
<path d="M22.0777 16.6049L8.38013 20.7756L24.542 10.1448L22.0777 16.6049Z" fill="#FCB415"/>
<path d="M6.38986 20.7869L5.74463 10.7236L8.85418 14.3268L6.38986 20.7869Z" fill="#EDA420"/>
<path d="M8.85397 14.3272L22.5516 10.1565L6.38965 20.7873L8.85397 14.3272Z" fill="#FCB415"/>
<path d="M11.5323 2.63507L11.1786 1.66333C10.7368 1.7993 10.3022 1.95757 9.87646 2.13754L10.2302 3.10927C10.6553 2.92761 11.0899 2.7693 11.5323 2.63507Z" fill="#FAB416"/>
<path d="M15.4657 2.04841C15.699 2.04841 15.9283 2.04841 16.1576 2.06784V1.03003C15.905 1.03003 15.6484 1.03003 15.3802 1.03003C15.112 1.03003 14.9682 1.03003 14.7622 1.04946V2.06784C15.0032 2.05618 15.2325 2.04841 15.4657 2.04841Z" fill="#FAB416"/>
<path d="M7.38523 4.75737L6.71667 3.97998C6.3513 4.25984 5.99759 4.55525 5.65942 4.87009L6.32409 5.64748C6.66254 5.33304 7.01671 5.03596 7.38523 4.75737Z" fill="#FAB416"/>
<path d="M4.20914 8.16249L3.31126 7.64941C3.0625 8.03811 2.83317 8.4268 2.61938 8.84659L3.51727 9.36744C3.72652 8.95389 3.95746 8.55168 4.20914 8.16249Z" fill="#FAB416"/>
<path d="M27.4143 9.36744L28.3122 8.84659C28.0984 8.43846 27.8691 8.03811 27.6203 7.64941L26.7224 8.16249C26.9741 8.55168 27.205 8.95389 27.4143 9.36744Z" fill="#FAB416"/>
<path d="M20.7015 3.10927L21.0553 2.13365C20.6316 1.94319 20.2118 1.79937 19.7531 1.66333L19.3994 2.63507C19.8418 2.7693 20.2765 2.92761 20.7015 3.10927Z" fill="#FAB416"/>
<path d="M2.39023 12.4574L1.37185 12.2786C1.27079 12.7256 1.18916 13.1803 1.13086 13.6429L2.15313 13.8217C2.20816 13.3631 2.2873 12.9077 2.39023 12.4574Z" fill="#FAB416"/>
<path d="M28.763 13.8217L29.7852 13.6429C29.7269 13.1803 29.6453 12.7256 29.5443 12.2786L28.5259 12.4574C28.6288 12.9077 28.708 13.3631 28.763 13.8217Z" fill="#FAB416"/>
<path d="M24.608 5.64748L25.2727 4.87009C24.9345 4.55914 24.5808 4.25984 24.2115 3.97998L23.5469 4.75737C23.9154 5.03596 24.2696 5.33304 24.608 5.64748Z" fill="#FAB416"/>
<path d="M6.32409 25.2847L5.65942 26.0621C5.99759 26.373 6.3513 26.6723 6.72056 26.9522L7.38523 26.1748C7.01671 25.8962 6.66254 25.5991 6.32409 25.2847Z" fill="#FAB416"/>
<path d="M23.5469 26.1748L24.2154 26.9522C24.5808 26.6723 24.9345 26.3769 25.2727 26.0621L24.608 25.2847C24.2696 25.5991 23.9154 25.8962 23.5469 26.1748Z" fill="#FAB416"/>
<path d="M26.7224 22.7658L27.6203 23.2827C27.8691 22.894 28.0984 22.5053 28.3122 22.0855L27.4143 21.5647C27.2049 21.9769 26.974 22.3778 26.7224 22.7658Z" fill="#FAB416"/>
<path d="M2.15313 17.1023L1.13086 17.2811C1.18916 17.7436 1.27079 18.1984 1.37185 18.6454L2.39023 18.4666C2.2873 18.0163 2.20816 17.5609 2.15313 17.1023Z" fill="#FAB416"/>
<path d="M19.3994 28.297L19.7531 29.2687C20.1949 29.1327 20.6295 28.9745 21.0553 28.7945L20.7015 27.8228C20.2765 28.0044 19.8418 28.1627 19.3994 28.297Z" fill="#FAB416"/>
<path d="M28.763 17.1023C28.708 17.5609 28.6288 18.0163 28.5259 18.4666L29.5443 18.6454C29.6453 18.1984 29.7269 17.7436 29.7852 17.2811L28.763 17.1023Z" fill="#FAB416"/>
<path d="M3.51727 21.5647L2.61938 22.0855C2.83317 22.4742 3.0625 22.894 3.31126 23.2827L4.20914 22.7658C3.95758 22.3778 3.72664 21.9769 3.51727 21.5647Z" fill="#FAB416"/>
<path d="M10.2302 27.8228L9.87646 28.7984C10.3001 28.9733 10.7355 29.1327 11.1786 29.2687L11.5323 28.297C11.0899 28.1627 10.6553 28.0044 10.2302 27.8228Z" fill="#FAB416"/>
<path d="M15.4658 28.8837C15.2326 28.8837 15.0033 28.8837 14.7739 28.8837V29.9176C15.0266 29.9176 15.2831 29.9176 15.5513 29.9176C15.8195 29.9176 15.9633 29.9176 16.1693 29.9176V28.8682C15.9361 28.8798 15.699 28.8837 15.4658 28.8837Z" fill="#FAB416"/>
<defs>
<linearGradient id="paint0_linear" x1="4.86492" y1="4.9738" x2="26.0695" y2="25.9614" gradientUnits="userSpaceOnUse">
<stop stop-color="#082B5F"/>
<stop offset="0.23" stop-color="#082D64"/>
<stop offset="0.49" stop-color="#093372"/>
<stop offset="0.77" stop-color="#0B3D89"/>
<stop offset="1" stop-color="#0D47A1"/>
</linearGradient>
</defs>
</svg>
